<svg xmlns="http://www.w3.org/2000/svg" width="987" height="1063" viewBox="0 0 987 1063">
<g>
<path d="M 367.43 1032.99 C361.71,1034.95 358.13,1035.42 347.00,1035.65 C332.23,1035.95 324.18,1034.60 310.00,1029.42 C305.64,1027.83 299.78,1026.54 296.00,1026.34 C292.42,1026.15 281.17,1025.53 271.00,1024.96 C221.16,1022.19 210.07,1011.75 251.38,1006.49 C258.04,1005.64 264.10,1004.73 264.84,1004.47 C265.77,1004.14 264.95,1002.52 262.12,999.14 C256.64,992.60 251.37,983.08 248.20,974.00 C245.83,967.20 245.59,965.10 245.59,951.50 C245.59,935.34 246.90,928.02 251.79,916.70 C253.24,913.37 253.92,910.57 253.40,910.12 C252.91,909.68 248.45,908.04 243.50,906.47 C215.62,897.62 181.68,880.62 155.00,862.15 C136.07,849.04 120.04,835.14 100.02,814.50 C75.84,789.57 56.52,761.67 39.93,727.72 C33.30,714.17 31.96,711.06 26.29,696.00 C2.44,632.63 -1.26,557.13 16.14,488.50 C18.47,479.30 26.89,453.73 29.85,446.84 C30.95,444.27 33.46,436.11 35.43,428.70 C37.40,421.29 41.52,406.51 44.60,395.86 C47.68,385.21 50.77,374.48 51.48,372.00 C53.83,363.80 61.78,338.78 68.33,319.00 C89.83,254.01 115.76,187.98 147.29,118.00 C158.11,93.98 190.99,27.67 196.01,19.72 C200.20,13.11 204.00,11.01 211.79,11.00 C220.70,11.00 224.05,13.10 233.75,24.77 C258.09,54.05 287.58,75.92 312.74,83.34 C331.07,88.75 350.12,104.43 360.94,123.00 C371.40,140.96 372.75,154.06 364.53,157.81 C358.52,160.54 353.98,158.56 343.82,148.76 C339.59,144.69 333.45,139.92 330.18,138.18 C324.47,135.13 323.73,135.00 312.66,135.00 C281.73,135.00 243.24,126.19 214.12,112.43 C208.95,109.99 204.16,108.00 203.46,108.00 C201.93,108.00 189.37,129.12 179.20,148.78 C152.02,201.36 137.52,248.63 135.36,291.79 L 134.68 305.31 L 140.09 301.18 C190.59,262.68 245.03,240.23 309.50,231.33 C328.34,228.73 378.94,228.74 398.00,231.35 C437.45,236.74 471.63,246.94 505.84,263.52 C561.91,290.71 607.39,330.34 642.94,383.00 C684.98,445.28 705.76,521.36 700.98,595.47 C700.79,598.41 700.61,601.02 700.46,603.33 C699.54,616.91 699.31,620.38 700.83,621.52 C701.61,622.11 702.84,622.09 704.68,622.51 C711.09,623.96 714.50,626.12 716.50,630.01 C717.36,631.65 718.18,633.00 718.33,633.00 C718.79,633.00 745.08,622.64 821.50,592.32 C840.20,584.91 864.72,575.20 876.00,570.76 C887.28,566.32 897.61,561.63 898.98,560.35 L 901.45 558.00 L 894.73 551.23 C887.91,544.36 886.46,540.94 889.20,538.20 C891.88,535.52 895.36,536.91 901.78,543.25 L 908.12 549.50 L 913.03 544.00 C915.73,540.97 917.95,537.98 917.97,537.35 C917.99,536.72 916.20,532.28 914.00,527.50 C909.44,517.58 909.33,516.92 911.83,514.65 C916.02,510.86 918.97,513.00 924.39,523.75 L 927.03 529.00 L 932.96 529.00 C936.22,529.00 939.15,528.56 939.49,528.02 C939.82,527.49 939.61,525.28 939.03,523.12 C936.31,513.01 936.12,509.88 938.11,507.89 C940.32,505.68 943.30,505.44 945.18,507.33 C945.91,508.06 947.58,512.99 948.91,518.28 L 951.31 527.91 L 962.50 528.50 L 970.67 545.00 C975.16,554.08 978.87,562.45 978.92,563.61 C978.96,564.77 977.67,567.40 976.04,569.44 L 973.09 573.16 L 978.54 580.32 C984.59,588.27 985.24,591.14 981.51,593.59 C978.17,595.78 977.00,595.15 971.34,588.13 C968.68,584.84 966.20,582.11 965.84,582.07 C965.48,582.03 963.27,584.28 960.94,587.08 L 956.69 592.15 L 959.93 598.86 C963.85,606.95 963.81,611.00 959.81,612.40 C956.06,613.71 954.66,612.28 949.35,601.71 L 944.88 592.80 L 936.69 593.51 C932.19,593.90 928.36,594.35 928.18,594.51 C928.01,594.67 928.35,598.29 928.94,602.56 C929.89,609.37 929.82,610.54 928.36,612.16 C926.04,614.72 922.36,614.48 920.50,611.64 C919.65,610.34 918.68,606.33 918.34,602.73 C918.00,599.12 917.45,595.74 917.11,595.20 C916.75,594.63 914.61,594.52 911.93,594.93 C908.47,595.46 895.21,602.63 857.93,624.14 C830.74,639.82 794.55,660.68 777.50,670.49 L 746.50 688.34 L 746.50 701.42 C746.50,712.74 746.17,715.40 744.08,721.21 C742.75,724.90 740.04,730.07 738.05,732.71 C731.77,741.06 725.85,744.01 708.27,747.58 C707.05,747.82 703.23,750.54 699.78,753.62 C696.34,756.69 691.84,760.06 689.80,761.10 C682.97,764.59 677.04,763.66 660.60,756.54 C656.41,754.72 655.05,755.41 655.02,759.36 C654.98,763.66 651.58,774.12 647.41,782.76 C639.90,798.32 627.13,810.09 611.06,816.27 C605.26,818.49 602.10,820.51 597.50,824.93 C583.49,838.38 563.75,854.59 551.68,862.54 C548.48,864.65 545.16,867.72 544.31,869.36 C543.46,871.01 540.50,875.47 537.73,879.27 C532.39,886.62 532.44,887.95 538.04,887.98 C539.43,887.99 542.20,888.83 544.18,889.84 L 547.79 891.68 L 549.93 886.94 C553.35,879.38 559.24,873.48 567.44,869.43 C574.16,866.11 575.46,865.82 583.63,865.80 C589.38,865.79 594.08,866.36 597.00,867.42 C602.81,869.53 610.99,875.15 613.81,878.96 C615.73,881.56 616.35,881.82 618.57,880.97 C625.18,878.46 631.10,881.27 633.07,887.84 C634.08,891.20 633.82,892.58 630.47,901.54 C625.60,914.57 621.51,922.62 614.10,933.69 C602.64,950.82 585.85,966.31 568.24,976.00 C563.74,978.47 560.05,980.84 560.03,981.25 C560.01,981.66 564.61,982.00 570.25,982.00 C585.40,982.01 612.25,983.83 622.32,985.53 C643.33,989.08 641.42,994.81 618.00,998.52 C603.78,1000.77 551.49,1001.70 530.65,1000.08 C509.05,998.39 500.50,996.37 494.60,991.53 C492.01,989.41 489.47,986.88 488.95,985.90 C487.71,983.60 487.74,977.82 488.99,974.52 C489.75,972.52 489.50,970.45 487.90,965.70 C485.53,958.68 485.80,953.51 488.89,946.51 L 490.80 942.20 L 487.18 939.85 C481.25,936.01 478.87,930.80 479.22,922.48 L 479.52 915.47 L 469.01 915.86 C463.23,916.07 454.23,915.69 449.00,915.00 C439.91,913.80 438.98,913.86 427.50,916.44 C413.34,919.62 392.60,922.63 378.20,923.60 C367.96,924.29 367.89,924.31 366.30,927.40 C363.89,932.10 356.71,941.12 352.03,945.35 C348.80,948.27 348.11,949.43 348.96,950.46 C349.57,951.19 350.39,953.70 350.79,956.04 C351.46,959.96 351.84,960.38 355.72,961.53 C366.05,964.57 373.23,971.04 378.40,981.95 C381.03,987.50 381.53,989.79 381.68,997.00 C381.86,1005.30 381.92,1005.51 384.41,1005.81 C387.45,1006.19 391.00,1010.36 391.00,1013.57 C391.00,1018.39 388.97,1021.06 381.70,1025.81 C377.66,1028.45 371.23,1031.68 367.43,1032.99 ZM 314.50 951.27 C317.11,951.89 319.01,951.39 327.79,947.78 C352.55,937.60 367.08,912.60 369.61,875.81 L 370.29 865.99 L 365.71 859.11 C355.24,843.36 347.34,823.39 344.50,805.50 C343.63,800.00 342.49,793.00 341.96,789.94 C340.74,782.86 340.73,774.84 341.94,771.65 C343.06,768.72 341.89,768.00 336.05,768.00 C329.77,768.00 315.58,765.18 305.24,761.87 C287.16,756.09 270.70,746.42 258.71,734.53 L 251.92 727.80 L 255.71 724.93 C257.79,723.35 259.97,722.04 260.54,722.03 C261.11,722.01 263.81,724.29 266.54,727.09 C282.85,743.82 312.35,756.20 338.45,757.26 L 344.39 757.50 L 346.30 751.19 C347.35,747.72 348.05,744.72 347.85,744.52 C347.66,744.32 343.67,743.66 339.00,743.05 C308.81,739.10 286.57,729.49 268.13,712.41 C264.21,708.78 261.00,705.46 261.00,705.04 C261.00,704.61 262.83,703.06 265.06,701.58 L 269.12 698.89 L 275.31 704.63 C282.59,711.37 292.61,718.04 301.54,722.09 C313.53,727.53 336.35,732.99 347.10,733.00 L 351.69 733.00 L 358.60 722.80 C373.19,701.23 393.05,686.41 414.50,681.08 C429.17,677.43 450.68,677.84 466.00,682.05 C474.35,684.35 491.65,692.27 498.67,697.01 C501.18,698.71 503.32,699.96 503.43,699.80 C503.53,699.63 504.89,696.44 506.44,692.69 C515.51,670.88 535.31,654.02 554.92,651.42 C562.04,650.47 561.24,649.15 553.35,648.80 C548.33,648.57 546.44,648.07 545.61,646.75 C543.73,643.76 546.04,641.54 551.42,641.19 C558.80,640.71 566.06,642.71 574.10,647.43 C583.69,653.06 587.23,653.68 593.01,650.75 C599.62,647.40 601.36,643.63 601.85,631.61 C602.52,614.91 599.33,606.90 591.43,605.42 C586.54,604.50 583.58,606.09 579.74,611.70 C577.96,614.30 574.92,618.13 573.00,620.22 C568.65,624.93 563.76,626.00 546.52,626.00 C535.74,626.00 534.11,625.77 532.57,624.07 C531.61,623.02 530.98,621.33 531.17,620.32 C531.49,618.68 533.08,618.44 547.51,617.93 C556.30,617.62 564.30,617.01 565.28,616.56 C566.27,616.12 568.47,613.68 570.18,611.13 C577.40,600.40 581.07,598.00 590.30,598.00 C598.74,598.00 602.46,600.41 606.50,608.50 C609.39,614.28 609.50,615.00 609.50,628.00 C609.50,643.40 608.53,647.30 603.24,653.16 C601.30,655.30 599.90,657.19 600.11,657.36 C600.32,657.52 603.42,659.31 607.00,661.33 C610.58,663.34 615.40,666.42 617.72,668.16 L 621.95 671.32 L 643.72 662.67 C655.70,657.91 669.55,652.26 674.50,650.12 L 683.50 646.23 L 684.69 640.87 C690.00,616.99 692.43,575.57 690.08,549.00 C683.66,476.46 656.36,411.46 609.00,355.95 C555.24,292.94 475.33,250.64 393.00,241.60 C325.34,234.18 261.01,245.45 201.79,275.11 C179.33,286.36 159.17,299.41 140.50,314.81 C134.04,320.14 127.96,325.08 127.00,325.79 C125.36,326.99 125.20,326.30 124.52,315.46 C122.23,278.76 130.65,235.42 149.29,188.00 C160.20,160.24 191.25,101.74 197.32,97.49 C200.86,95.01 204.17,95.74 217.11,101.87 C246.90,115.98 277.08,123.16 312.62,124.61 C328.24,125.24 328.61,125.31 335.22,128.73 C339.21,130.80 345.46,135.51 350.64,140.36 L 359.34 148.50 L 358.72 144.68 C357.75,138.71 351.56,127.16 344.64,118.40 C334.86,106.03 323.31,98.17 306.71,92.60 C290.95,87.31 272.89,76.73 257.00,63.48 C248.53,56.41 231.02,38.56 223.50,29.32 C218.10,22.69 215.55,21.00 210.95,21.00 C206.94,21.00 205.59,23.27 184.20,66.00 C146.89,140.55 119.77,205.04 87.68,295.50 C70.37,344.30 44.72,429.59 46.94,430.96 C47.44,431.27 45.18,438.02 41.91,445.96 C29.94,475.05 22.94,500.93 18.32,533.18 C15.79,550.86 15.80,601.22 18.34,619.00 C23.87,657.70 33.20,689.12 48.63,721.00 C66.14,757.21 83.88,782.56 111.49,810.87 C149.75,850.09 192.97,877.68 244.00,895.46 C265.03,902.79 295.20,909.55 316.77,911.77 L 325.04 912.61 L 327.98 908.03 C336.81,894.27 340.96,879.84 341.71,860.34 L 342.25 846.18 L 345.69 845.53 C347.59,845.17 349.75,844.65 350.48,844.37 C354.17,842.95 353.17,870.54 348.96,886.47 C343.69,906.42 331.16,925.15 314.48,938.02 C310.22,941.31 309.00,942.85 309.00,944.97 C309.00,947.89 311.28,950.50 314.50,951.27 ZM 445.43 903.59 C449.88,904.44 457.69,904.83 466.50,904.64 C479.66,904.36 481.15,904.12 491.31,900.62 C504.26,896.16 515.25,888.70 524.50,878.08 C531.96,869.52 536.02,862.84 540.62,851.55 C545.21,840.29 547.59,828.54 548.51,812.65 C548.91,805.69 549.56,800.00 549.95,800.00 C550.35,800.00 555.07,801.79 560.44,803.98 C581.58,812.58 600.68,811.50 617.75,800.75 C629.57,793.32 638.76,779.42 643.01,762.59 C645.35,753.28 645.52,749.41 643.61,748.68 C641.88,748.02 622.01,759.31 620.13,762.02 C619.37,763.11 617.69,764.00 616.39,764.00 C614.58,764.00 613.47,765.11 611.59,768.81 C604.47,782.87 590.34,786.43 575.27,777.95 C572.39,776.33 569.40,775.00 568.62,775.00 C566.83,775.00 565.87,777.41 567.08,778.88 C567.73,779.67 567.65,779.70 566.80,779.00 C564.98,777.48 560.87,777.80 557.29,779.75 C555.52,780.71 543.85,786.86 531.36,793.40 C518.87,799.95 507.10,806.35 505.21,807.63 C503.33,808.91 499.25,811.14 496.14,812.58 C493.04,814.02 487.66,817.03 484.18,819.26 C478.46,822.94 477.93,823.57 478.55,825.91 C478.93,827.34 479.30,829.15 479.37,829.95 C479.53,831.75 471.46,836.39 469.47,835.63 C468.67,835.32 466.34,831.68 464.29,827.53 C462.24,823.39 460.02,820.00 459.36,820.00 C458.71,820.00 456.77,821.76 455.06,823.92 C450.83,829.26 444.28,833.40 437.86,834.78 C428.10,836.89 412.95,839.00 407.63,839.00 C400.19,839.00 391.50,835.74 384.28,830.24 C377.17,824.83 372.68,819.30 367.84,810.00 L 364.46 803.50 L 359.98 803.50 C355.73,803.50 355.48,803.65 355.20,806.52 C354.57,812.98 365.71,840.23 374.37,853.42 C383.68,867.58 399.85,883.14 413.21,890.78 C423.41,896.61 436.91,901.98 445.43,903.59 ZM 402.33 827.90 C407.94,829.53 412.37,829.11 434.62,824.89 C441.00,823.68 446.93,818.85 449.41,812.83 C450.40,810.45 451.52,807.86 451.91,807.09 C452.29,806.31 455.67,804.84 459.41,803.81 C467.09,801.71 472.86,798.12 478.40,791.97 C483.75,786.06 485.35,781.71 484.66,775.01 C484.17,770.22 483.63,769.13 480.55,766.65 C474.80,762.04 476.18,756.00 482.98,756.00 C484.14,756.00 487.28,758.05 489.95,760.55 L 494.82 765.10 L 498.65 763.50 C513.12,757.45 515.25,738.94 502.34,731.35 C498.08,728.84 496.60,728.52 490.04,728.66 C480.55,728.87 477.23,727.25 466.84,717.34 C462.54,713.26 457.34,709.20 455.27,708.33 C453.20,707.45 447.65,706.52 442.95,706.24 C433.60,705.70 431.04,706.49 423.81,712.17 C421.78,713.77 414.27,717.70 407.11,720.91 C399.96,724.13 390.72,729.06 386.59,731.88 C382.45,734.69 378.30,737.00 377.36,737.00 C375.03,737.00 372.00,734.09 372.00,731.85 C372.00,730.83 371.43,730.00 370.72,730.00 C365.58,730.00 359.25,741.98 357.85,754.34 C357.33,758.93 355.65,765.51 353.80,770.19 C350.70,778.06 350.66,778.30 352.07,783.76 C353.04,787.55 354.34,789.94 356.13,791.26 C359.61,793.84 363.00,792.86 363.00,789.26 C363.00,785.79 365.68,783.00 369.03,783.00 C372.73,783.00 373.64,784.48 374.27,791.50 C374.96,799.27 378.03,807.24 382.76,813.50 C386.77,818.81 397.05,826.37 402.33,827.90 ZM 565.82 599.04 C551.40,602.94 548.73,603.35 547.25,601.86 C546.56,601.17 546.00,599.58 546.00,598.34 C546.00,598.23 546.00,598.12 546.00,598.02 C545.99,597.65 545.98,597.34 546.08,597.07 C546.50,595.80 548.98,595.23 563.00,591.56 C575.15,588.39 579.02,584.64 575.98,578.97 C573.68,574.66 561.78,574.47 548.25,578.51 C542.08,580.35 538.67,579.30 539.19,575.69 C539.60,572.84 543.43,571.10 553.66,569.11 C558.25,568.23 561.99,567.12 562.00,566.65 C562.00,566.19 561.08,564.52 559.97,562.95 C550.26,549.32 544.59,517.79 546.94,490.42 C550.68,446.69 570.00,421.00 591.54,431.12 C601.02,435.58 610.01,450.46 614.42,469.00 C625.19,514.21 613.25,566.90 589.96,576.92 C585.90,578.67 585.00,579.51 585.00,581.56 C585.00,585.31 582.62,590.15 579.19,593.37 C576.95,595.48 573.37,597.00 565.82,599.04 ZM 504.10 585.45 C484.45,595.61 464.28,569.29 460.04,527.92 C456.18,490.26 463.81,454.87 479.20,439.10 C484.47,433.71 488.35,431.99 495.22,432.02 C505.41,432.06 512.31,437.46 519.37,450.88 C532.09,475.09 534.85,521.91 525.35,552.40 C520.13,569.14 512.41,581.15 504.10,585.45 ZM 489.46 577.14 C497.46,582.02 505.32,576.99 512.36,562.50 C528.13,530.04 525.52,472.17 507.15,447.29 C496.48,432.84 482.04,440.94 473.72,466.05 C465.59,490.56 465.66,529.26 473.88,553.15 C477.91,564.87 483.53,573.52 489.46,577.14 ZM 503.45 968.45 C511.14,972.25 534.92,967.69 552.02,959.15 C577.48,946.42 597.53,923.12 606.05,896.35 L 608.33 889.21 L 605.91 886.24 C597.80,876.25 584.28,873.27 572.44,878.87 C561.95,883.83 556.88,892.81 556.64,906.85 C556.51,914.15 556.24,915.14 553.44,918.59 C551.76,920.67 549.20,923.26 547.75,924.34 C545.26,926.20 544.98,926.22 542.56,924.63 C539.21,922.43 539.15,918.15 542.42,915.08 C543.75,913.83 545.39,911.47 546.07,909.84 C547.13,907.27 547.03,906.52 545.33,904.19 C542.82,900.76 537.43,898.00 533.25,898.00 C530.20,898.00 530.00,898.21 530.00,901.54 C530.00,906.91 526.63,912.55 521.75,915.36 C513.16,920.30 506.55,919.66 501.01,913.35 C497.98,909.90 497.86,909.86 495.37,911.49 C492.69,913.25 489.06,920.13 489.03,923.50 C488.96,930.21 497.14,935.17 504.77,933.05 C510.29,931.51 514.68,931.73 515.39,933.58 C517.54,939.19 514.62,942.58 506.73,943.63 C502.17,944.23 501.76,944.55 499.45,949.10 C495.25,957.39 496.87,965.20 503.45,968.45 ZM 576.50 568.16 C584.74,573.19 593.74,567.35 600.59,552.52 C614.98,521.37 612.23,468.21 595.06,445.47 C591.35,440.55 586.11,437.00 582.56,437.00 C579.71,437.00 573.36,440.78 570.46,444.21 C566.19,449.24 560.47,462.44 557.97,473.00 C555.19,484.78 554.18,509.17 555.92,522.52 C558.81,544.73 566.68,562.17 576.50,568.16 ZM 678.72 752.39 C680.64,754.31 689.00,750.02 694.00,744.54 C697.45,740.76 702.24,738.49 712.02,736.00 C716.60,734.82 721.59,733.23 723.09,732.45 C732.91,727.38 739.68,706.11 735.72,692.77 C734.86,689.87 733.89,686.25 733.55,684.72 C732.68,680.73 726.24,674.01 721.00,671.64 C717.14,669.89 714.73,669.63 704.07,669.80 C688.64,670.05 685.34,671.33 682.81,678.00 C680.63,683.77 680.51,693.16 682.58,697.16 C684.48,700.83 683.77,704.52 680.86,706.07 C677.81,707.70 674.46,705.60 672.56,700.86 C671.71,698.74 670.74,697.00 670.40,697.00 C670.06,697.00 668.90,698.12 667.82,699.50 C666.44,701.26 664.88,702.00 662.57,702.00 C655.59,702.00 646.00,713.14 646.00,721.26 C646.00,724.94 650.86,736.17 653.81,739.28 C657.33,743.01 664.09,746.87 671.78,749.56 C675.26,750.78 678.38,752.05 678.72,752.39 ZM 327.00 1011.10 C339.63,1013.89 357.41,1013.27 365.11,1009.78 L 370.71 1007.24 L 370.90 999.99 C371.22,987.11 366.61,978.48 356.81,973.59 C352.51,971.45 350.22,971.00 343.55,971.00 C336.75,971.00 334.57,971.45 329.50,973.87 C322.71,977.12 319.70,980.00 316.04,986.79 C314.31,990.00 312.76,991.60 311.17,991.83 C308.40,992.22 305.00,989.46 305.00,986.81 C305.00,983.37 309.77,975.47 314.46,971.14 C319.37,966.62 330.02,961.00 333.68,961.00 C337.66,961.00 341.02,959.20 340.34,957.44 C339.59,955.48 337.38,955.82 327.50,959.41 C318.93,962.52 313.01,962.67 307.32,959.91 C300.99,956.85 298.59,952.91 298.42,945.30 C298.34,941.86 297.75,938.40 297.10,937.62 C293.56,933.35 293.98,923.06 297.76,921.48 C299.43,920.78 281.42,916.22 276.37,916.07 C273.37,915.97 271.27,919.67 268.85,929.28 C266.03,940.52 266.03,955.12 268.86,964.00 C276.22,987.10 297.92,1004.68 327.00,1011.10 ZM 514.35 727.93 C518.21,732.02 519.64,732.94 521.35,732.42 C526.53,730.84 530.76,728.70 534.26,725.90 C536.33,724.25 538.41,723.14 538.90,723.44 C540.63,724.51 541.74,721.37 542.28,713.83 C542.95,704.51 545.46,698.50 550.84,693.27 C556.14,688.13 561.20,686.66 570.61,687.54 C577.04,688.14 578.00,688.02 578.00,686.62 C578.00,685.37 579.02,685.00 582.48,685.00 C587.63,685.00 607.00,677.49 607.00,675.50 C607.00,673.66 600.22,669.32 591.89,665.82 C556.22,650.83 520.76,670.02 512.24,708.93 C511.23,713.57 509.92,717.53 509.34,717.72 C508.76,717.91 506.30,716.41 503.89,714.38 C496.83,708.43 483.12,699.94 475.53,696.80 C451.96,687.08 425.26,686.42 406.10,695.11 C390.33,702.26 374.32,715.11 376.62,718.77 C378.54,721.84 382.52,721.37 389.72,717.20 C393.45,715.04 399.12,712.30 402.33,711.12 C410.38,708.15 413.31,706.53 419.84,701.46 C426.96,695.95 435.38,693.57 445.48,694.22 C455.34,694.86 460.39,697.47 471.02,707.41 C476.08,712.15 481.18,716.21 482.36,716.45 C483.54,716.68 487.92,717.09 492.11,717.35 C501.59,717.94 507.63,720.82 514.35,727.93 ZM 585.42 554.12 C578.83,557.63 576.10,558.13 572.33,556.52 C563.37,552.69 563.15,541.51 571.95,537.02 C580.50,532.66 581.04,527.71 574.21,516.42 C571.58,512.06 568.66,506.88 567.73,504.89 C560.59,489.68 564.33,468.51 576.11,457.50 C580.37,453.51 581.44,453.00 585.52,453.00 C591.43,453.00 593.82,454.33 595.60,458.59 C597.47,463.07 596.55,466.65 592.42,471.00 C587.94,475.72 586.00,480.78 586.00,487.78 C586.00,492.86 586.54,494.53 590.12,500.46 C600.12,517.04 602.54,526.18 599.62,536.25 C597.53,543.41 591.67,550.79 585.42,554.12 ZM 497.58 559.07 C491.37,562.63 486.52,562.85 482.84,559.75 C475.45,553.50 476.68,546.12 485.98,540.89 C490.38,538.42 492.55,534.33 491.56,530.38 C491.19,528.92 488.28,523.31 485.09,517.91 C478.31,506.45 476.53,499.73 477.19,488.20 C477.54,482.20 478.36,478.82 480.68,473.88 C487.22,459.89 495.79,454.25 504.02,458.51 C507.74,460.43 509.00,462.83 509.00,467.96 C509.00,471.33 508.31,472.80 505.01,476.38 C502.81,478.76 500.34,482.63 499.51,484.98 C496.62,493.16 497.07,494.69 508.54,515.50 C512.00,521.77 512.45,523.39 512.82,531.10 C513.15,538.10 512.86,540.52 511.26,544.15 C508.57,550.22 503.65,555.58 497.58,559.07 ZM 473.99 816.75 C475.08,818.54 476.22,820.00 476.51,820.00 C477.63,820.00 489.68,813.63 494.50,810.49 C499.81,807.03 506.42,803.44 536.00,787.97 C546.17,782.65 555.77,777.10 557.31,775.65 C558.86,774.19 560.97,773.00 562.00,773.00 C565.24,773.00 565.25,771.09 562.02,767.87 C559.13,764.98 558.79,764.88 557.13,766.38 C556.15,767.27 554.57,768.00 553.62,768.00 C551.69,768.00 550.37,768.64 530.00,779.49 C522.03,783.73 510.33,789.91 504.00,793.21 C478.27,806.66 472.07,809.68 472.06,812.72 C472.05,813.67 472.65,814.61 473.45,815.88 C473.62,816.15 473.80,816.44 473.99,816.75 ZM 336.35 1028.99 C343.17,1029.93 353.12,1029.41 360.00,1027.77 C369.64,1025.46 384.00,1017.49 384.00,1014.45 C384.00,1012.10 380.37,1012.78 375.78,1016.00 C358.08,1028.41 322.48,1025.76 294.39,1009.94 C283.49,1003.80 268.81,989.16 263.69,979.30 C258.57,969.46 256.00,958.82 256.01,947.59 C256.03,937.80 258.78,922.27 261.39,917.22 C263.18,913.74 263.43,912.00 262.14,912.00 C260.95,912.00 256.51,922.20 254.51,929.50 C253.61,932.80 252.62,940.72 252.30,947.11 C251.60,961.50 253.39,970.53 259.25,982.29 C264.61,993.02 277.85,1006.51 289.00,1012.59 C304.20,1020.88 321.86,1027.00 336.35,1028.99 ZM 496.37 982.45 C497.93,984.82 498.59,985.00 505.77,984.99 C536.57,984.97 568.61,971.36 591.59,948.54 C605.18,935.04 616.43,917.22 622.89,898.98 C625.92,890.43 625.97,887.99 623.14,888.02 C620.40,888.04 619.41,889.28 617.99,894.50 C613.88,909.62 606.05,924.84 595.91,937.46 C577.12,960.81 548.20,976.57 517.61,980.13 C508.55,981.18 506.87,981.12 502.13,979.54 C495.75,977.42 493.74,978.43 496.37,982.45 ZM 374.02 911.88 C374.00,913.00 375.57,913.13 382.25,912.57 C390.96,911.84 416.52,908.26 418.91,907.43 C419.72,907.15 416.59,904.81 411.51,901.89 C401.14,895.95 394.62,891.25 386.71,884.01 C383.53,881.11 380.76,878.91 380.55,879.12 C380.34,879.33 379.66,883.21 379.03,887.75 C378.41,892.29 377.04,899.26 375.98,903.25 C374.92,907.24 374.04,911.12 374.02,911.88 ZM 490.63 795.21 C490.90,795.65 491.49,796.00 491.95,796.00 C492.40,796.00 505.63,789.20 521.36,780.89 C539.84,771.11 550.15,765.11 550.54,763.89 C550.87,762.85 551.98,762.00 553.01,762.00 C555.57,762.00 556.19,760.65 554.62,758.49 C553.21,756.57 551.00,757.20 551.00,759.53 C551.00,760.55 550.21,760.79 548.23,760.40 C546.06,759.96 540.36,762.36 521.98,771.44 C509.07,777.82 497.83,783.40 497.00,783.85 C495.16,784.86 489.96,794.13 490.63,795.21 ZM 594.39 644.47 C591.85,647.01 587.49,646.37 584.69,643.04 C578.92,636.18 580.53,615.46 587.10,611.94 C593.27,608.64 597.95,615.54 597.97,628.00 C597.99,636.31 596.72,642.13 594.39,644.47 ZM 555.00 846.22 C555.00,847.24 566.70,837.98 577.87,828.12 C585.73,821.18 585.79,820.24 578.46,820.07 C576.79,820.03 572.74,819.27 569.46,818.38 C568.63,818.15 567.87,817.94 567.16,817.75 C562.24,816.39 560.26,815.85 559.48,816.58 C558.95,817.07 558.96,818.13 558.98,819.90 C558.98,820.28 558.99,820.69 558.98,821.13 C558.98,824.09 558.08,830.73 556.98,835.90 C555.89,841.07 555.00,845.71 555.00,846.22 ZM 496.18 777.38 C495.55,780.50 499.94,778.99 520.68,768.96 C542.47,758.42 545.00,756.85 545.00,753.84 C545.00,752.25 545.28,752.16 546.95,753.20 C549.54,754.82 550.59,753.59 549.44,750.31 C548.24,746.94 546.03,746.17 545.32,748.87 C544.87,750.62 544.45,750.78 542.75,749.87 C540.69,748.76 539.36,749.19 526.00,755.29 C523.53,756.42 518.35,760.53 514.50,764.42 C509.39,769.59 506.01,772.08 502.00,773.63 C498.95,774.82 496.36,776.49 496.18,777.38 ZM 693.18 656.36 C692.67,658.92 694.76,658.40 709.12,652.42 C716.48,649.36 725.88,645.59 730.00,644.06 C734.12,642.52 741.33,639.47 746.00,637.29 C750.67,635.10 756.30,632.72 758.50,632.01 C760.70,631.30 766.33,628.93 771.00,626.74 C775.67,624.56 782.36,621.45 785.86,619.83 C793.19,616.43 793.57,614.90 786.35,617.83 C783.68,618.91 775.88,621.91 769.00,624.49 C743.91,633.89 735.27,637.24 724.00,641.96 C717.67,644.61 711.38,647.11 710.00,647.51 C707.61,648.21 698.14,652.25 695.00,653.92 C694.17,654.36 693.35,655.45 693.18,656.36 ZM 709.21 656.87 C708.60,658.71 710.20,658.24 721.07,653.42 C726.75,650.90 733.45,648.15 735.95,647.32 C738.45,646.48 741.17,645.22 742.00,644.51 C742.83,643.81 744.62,642.90 746.00,642.50 C747.38,642.09 749.02,641.34 749.65,640.84 C750.28,640.34 751.63,639.74 752.65,639.51 C759.82,637.88 778.39,631.34 788.00,627.04 C802.89,620.38 827.00,608.28 827.00,607.47 C827.00,606.82 809.53,613.26 802.13,616.65 C797.93,618.57 788.21,622.65 780.52,625.71 C772.83,628.77 761.63,633.69 755.62,636.64 C749.62,639.59 744.04,642.00 743.22,642.00 C742.41,642.00 738.77,643.39 735.12,645.09 C726.96,648.89 724.24,650.05 716.04,653.23 C712.49,654.61 709.42,656.25 709.21,656.87 ZM 721.48 659.61 C722.53,660.37 723.71,661.00 724.11,661.00 C725.76,661.00 741.63,654.61 743.08,653.36 C743.95,652.61 744.97,652.00 745.35,652.00 C746.92,652.00 777.00,636.56 777.00,635.75 C777.00,634.63 775.17,635.18 760.50,640.74 C753.90,643.24 745.80,646.30 742.50,647.54 C739.20,648.77 732.69,651.68 728.04,654.00 C720.23,657.90 719.72,658.32 721.48,659.61 ZM 501.88 642.23 C500.45,645.04 499.34,646.00 497.51,646.00 C493.54,646.00 492.74,643.03 495.17,637.27 C497.67,631.35 497.19,627.04 493.42,621.48 C490.08,616.56 490.54,614.50 494.97,614.50 C497.78,614.50 498.85,615.13 500.71,617.90 C505.53,625.05 505.97,634.22 501.88,642.23 ZM 632.28 681.88 C632.90,682.50 634.25,683.00 635.28,683.00 C638.09,683.00 674.42,667.19 676.88,664.90 C679.32,662.62 679.62,661.00 677.59,661.00 C676.14,661.00 645.68,672.76 638.43,676.12 C636.20,677.15 633.88,678.00 633.29,678.00 C631.68,678.00 631.00,680.60 632.28,681.88 ZM 603.68 713.54 C605.14,714.99 605.51,715.02 606.43,713.77 C607.02,712.98 609.36,712.07 611.64,711.77 C616.61,711.11 631.71,704.09 632.51,702.07 C632.82,701.29 632.38,699.96 631.54,699.11 C630.26,697.84 629.31,697.77 625.76,698.72 C617.98,700.80 607.84,705.88 607.30,707.98 C606.89,709.51 606.39,709.74 605.02,709.01 C601.81,707.29 600.81,710.67 603.68,713.54 ZM 521.00 750.12 C521.00,753.42 521.32,754.00 523.14,754.00 C526.00,754.00 539.80,745.94 540.51,743.85 C540.85,742.84 541.78,742.39 542.92,742.69 C545.46,743.35 546.26,741.66 544.85,738.57 C543.50,735.61 542.74,735.40 540.98,737.52 C540.29,738.36 538.94,738.80 538.00,738.50 C536.33,737.97 525.50,742.51 522.49,745.01 C521.64,745.71 521.00,747.90 521.00,750.12 ZM 608.04 721.54 C609.55,723.37 610.91,723.41 611.58,721.65 C611.88,720.86 613.05,720.48 614.36,720.73 C617.10,721.25 635.63,712.42 636.48,710.18 C636.81,709.34 636.41,707.98 635.60,707.18 C634.31,705.88 633.07,706.15 625.32,709.42 C620.02,711.65 615.46,714.32 613.90,716.10 C612.28,717.95 610.73,718.83 609.76,718.46 C607.67,717.66 606.53,719.72 608.04,721.54 ZM 591.04 698.54 C592.62,700.46 594.91,700.40 595.67,698.43 C596.07,697.36 597.01,697.04 598.55,697.42 C600.75,697.98 614.65,692.73 619.72,689.44 C622.18,687.84 621.85,685.45 619.06,684.73 C616.57,684.08 596.57,692.39 596.21,694.23 C596.01,695.19 595.10,695.55 593.57,695.26 C590.76,694.72 589.36,696.53 591.04,698.54 ZM 638.00 687.19 C638.00,689.63 639.32,689.48 647.50,686.10 C664.20,679.20 668.52,677.07 668.82,675.58 C669.32,673.17 666.93,673.62 655.73,678.05 C639.39,684.51 638.00,685.23 638.00,687.19 ZM 614.67 742.33 C615.91,743.58 617.19,743.01 617.72,740.97 C618.09,739.56 618.80,739.12 620.06,739.52 C621.79,740.07 632.33,734.90 633.56,732.90 C634.49,731.40 632.98,728.00 631.40,728.00 C628.62,728.00 619.77,733.15 619.27,735.06 C618.89,736.52 618.19,736.84 616.39,736.38 C614.28,735.85 614.00,736.12 614.00,738.72 C614.00,740.34 614.30,741.97 614.67,742.33 ZM 642.36 695.50 C642.68,696.33 643.50,697.00 644.18,697.00 C646.92,697.00 661.86,688.87 663.38,686.55 C666.53,681.73 665.28,681.81 652.64,687.21 C642.82,691.40 641.27,692.65 642.36,695.50 ZM 800.00 636.00 C800.00,636.99 817.82,629.69 827.50,624.73 C834.25,621.27 846.03,614.07 845.00,614.03 C842.19,613.90 800.00,634.51 800.00,636.00 ZM 617.42 728.56 C618.87,729.62 619.94,729.47 623.83,727.63 C632.15,723.70 633.00,723.04 633.00,720.46 C633.00,717.22 631.39,717.31 623.41,721.04 C616.39,724.32 614.63,726.53 617.42,728.56 ZM 603.57 702.11 C604.52,703.65 607.23,703.02 616.50,699.11 C622.04,696.78 625.62,694.68 625.82,693.66 C626.28,691.30 624.87,691.54 614.61,695.59 C604.85,699.45 602.70,700.71 603.57,702.11 ZM 520.70 739.66 C521.45,741.62 522.78,741.34 529.99,737.74 C536.27,734.60 538.55,731.81 535.72,730.72 C534.07,730.09 522.10,735.22 520.98,737.04 C520.54,737.74 520.42,738.92 520.70,739.66 ZM 730.67 664.33 C730.85,664.52 730.98,664.67 731.15,664.77 C731.80,665.12 732.97,664.54 739.82,661.09 L 740.94 660.53 C748.93,656.52 752.57,653.98 750.31,654.01 C748.28,654.04 739.82,657.06 735.15,659.42 C730.16,661.95 729.27,662.93 730.67,664.33 ZM 696.36 638.95 L 695.72 642.14 L 699.61 640.48 C701.75,639.57 704.51,638.43 705.75,637.94 C708.42,636.88 708.48,636.62 706.43,634.57 C704.43,632.57 697.00,632.41 697.00,634.38 C697.00,635.13 696.71,637.19 696.36,638.95 ZM 305.64 930.31 C306.29,930.96 312.63,926.35 314.97,923.54 C316.07,922.22 315.84,922.00 313.37,921.99 C311.79,921.98 308.70,921.70 306.50,921.36 C303.20,920.85 302.72,920.97 303.75,922.07 C304.44,922.80 305.00,924.81 305.00,926.53 C305.00,928.26 305.29,929.95 305.64,930.31 ZM 736.23 667.75 C736.01,668.44 736.36,669.00 737.01,669.00 C738.38,669.00 748.78,663.44 751.00,661.53 C751.83,660.82 754.41,659.27 756.75,658.10 C760.85,656.03 762.82,654.26 759.25,655.84 C741.35,663.78 736.72,666.18 736.23,667.75 ZM 509.05 906.56 C509.71,907.35 511.06,908.00 512.05,908.00 C514.60,908.00 520.00,903.19 520.00,900.91 C520.00,898.90 517.56,898.28 516.49,900.01 C516.15,900.57 514.06,901.95 511.86,903.07 C508.56,904.75 508.06,905.37 509.05,906.56 ZM 622.00 744.64 C622.00,746.69 623.72,746.31 629.61,742.94 C635.44,739.60 636.57,738.47 635.02,737.51 C633.59,736.63 622.00,742.98 622.00,744.64 ZM 743.63 670.53 C743.20,671.63 743.62,671.72 745.68,670.93 C748.89,669.71 754.27,665.94 753.67,665.33 C752.90,664.56 744.19,669.07 743.63,670.53 ZM 472.82 628.83 C473.06,630.47 472.63,631.00 471.04,631.00 C468.50,631.00 467.15,628.15 469.10,626.92 C471.11,625.64 472.45,626.33 472.82,628.83 ZM 636.81 609.74 C636.63,610.69 635.69,611.63 634.74,611.81 C632.67,612.21 631.28,609.32 632.80,607.80 C634.32,606.28 637.21,607.67 636.81,609.74 ZM 618.82 604.17 C618.42,606.89 616.69,607.53 615.06,605.58 C613.51,603.71 614.50,602.00 617.13,602.00 C618.62,602.00 619.06,602.56 618.82,604.17 ZM 451.00 623.38 C451.00,625.62 448.56,627.16 447.18,625.78 C445.21,623.81 445.85,622.00 448.50,622.00 C449.96,622.00 451.00,622.57 451.00,623.38 ZM 630.56 588.10 C631.42,589.49 628.91,591.91 627.25,591.30 C625.18,590.53 625.75,587.00 627.94,587.00 C629.01,587.00 630.19,587.49 630.56,588.10 ZM 461.00 608.06 C461.00,610.38 458.19,610.67 457.34,608.43 C456.61,606.55 458.38,604.50 459.91,605.45 C460.51,605.82 461.00,606.99 461.00,608.06 ZM 611.38 730.55 C612.19,732.67 615.00,732.32 615.00,730.11 C615.00,728.00 612.41,726.53 611.44,728.09 C611.10,728.64 611.07,729.75 611.38,730.55 ZM 539.23 729.81 C539.01,730.47 539.55,731.00 540.42,731.00 C541.29,731.00 542.00,730.29 542.00,729.42 C542.00,727.65 539.85,727.96 539.23,729.81 ZM 799.00 613.00 C799.00,613.55 799.67,614.00 800.50,614.00 C801.33,614.00 802.00,613.55 802.00,613.00 C802.00,612.45 801.33,612.00 800.50,612.00 C799.67,612.00 799.00,612.45 799.00,613.00 Z" fill="rgb(72,53,41)"/>
<path d="M 445.43 903.59 C436.91,901.98 423.41,896.61 413.21,890.78 C399.85,883.14 383.68,867.58 374.37,853.42 C365.71,840.23 354.57,812.98 355.20,806.52 C355.48,803.65 355.73,803.50 359.98,803.50 L 364.46 803.50 L 367.84 810.00 C372.68,819.30 377.17,824.83 384.28,830.24 C391.50,835.74 400.19,839.00 407.63,839.00 C412.95,839.00 428.10,836.89 437.86,834.78 C444.28,833.40 450.83,829.26 455.06,823.92 C456.77,821.76 458.71,820.00 459.36,820.00 C460.02,820.00 462.24,823.39 464.29,827.53 C466.34,831.68 468.67,835.32 469.47,835.63 C471.46,836.39 479.53,831.75 479.37,829.95 C479.30,829.15 478.93,827.34 478.55,825.91 C477.93,823.57 478.46,822.94 484.18,819.26 C487.66,817.03 493.04,814.02 496.14,812.58 C499.25,811.14 503.33,808.91 505.21,807.63 C507.10,806.35 518.87,799.95 531.36,793.40 C543.85,786.86 555.52,780.71 557.29,779.75 C560.87,777.80 564.98,777.48 566.80,779.00 C567.65,779.70 567.73,779.67 567.08,778.88 C565.87,777.41 566.83,775.00 568.62,775.00 C569.40,775.00 572.39,776.33 575.27,777.95 C590.34,786.43 604.47,782.87 611.59,768.81 C613.47,765.11 614.58,764.00 616.39,764.00 C617.69,764.00 619.37,763.11 620.13,762.02 C622.01,759.31 641.88,748.02 643.61,748.68 C645.52,749.41 645.35,753.28 643.01,762.59 C638.76,779.42 629.57,793.32 617.75,800.75 C600.68,811.50 581.58,812.58 560.44,803.98 C555.07,801.79 550.35,800.00 549.95,800.00 C549.56,800.00 548.91,805.69 548.51,812.65 C547.59,828.54 545.21,840.29 540.62,851.55 C536.02,862.84 531.96,869.52 524.50,878.08 C515.25,888.70 504.26,896.16 491.31,900.62 C481.15,904.12 479.66,904.36 466.50,904.64 C457.69,904.83 449.88,904.44 445.43,903.59 ZM 514.35 727.93 C507.63,720.82 501.59,717.94 492.11,717.35 C487.92,717.09 483.54,716.68 482.36,716.45 C481.18,716.21 476.08,712.15 471.02,707.41 C460.39,697.47 455.34,694.86 445.48,694.22 C435.38,693.57 426.96,695.95 419.84,701.46 C413.31,706.53 410.38,708.15 402.33,711.12 C399.12,712.30 393.45,715.04 389.72,717.20 C382.52,721.37 378.54,721.84 376.62,718.77 C374.32,715.11 390.33,702.26 406.10,695.11 C425.26,686.42 451.96,687.08 475.53,696.80 C483.12,699.94 496.83,708.43 503.89,714.38 C506.30,716.41 508.76,717.91 509.34,717.72 C509.92,717.53 511.23,713.57 512.24,708.93 C520.76,670.02 556.22,650.83 591.89,665.82 C600.22,669.32 607.00,673.66 607.00,675.50 C607.00,677.49 587.63,685.00 582.48,685.00 C579.02,685.00 578.00,685.37 578.00,686.62 C578.00,688.02 577.04,688.14 570.61,687.54 C561.20,686.66 556.14,688.13 550.84,693.27 C545.46,698.50 542.95,704.51 542.28,713.83 C541.74,721.37 540.63,724.51 538.90,723.44 C538.41,723.14 536.33,724.25 534.26,725.90 C530.76,728.70 526.53,730.84 521.35,732.42 C519.64,732.94 518.21,732.02 514.35,727.93 ZM 473.99 816.75 C473.80,816.44 473.62,816.15 473.45,815.88 C472.65,814.61 472.05,813.67 472.06,812.72 C472.07,809.68 478.27,806.66 504.00,793.21 C510.33,789.91 522.03,783.73 530.00,779.49 C550.37,768.64 551.69,768.00 553.62,768.00 C554.57,768.00 556.15,767.27 557.13,766.38 C558.79,764.88 559.13,764.98 562.02,767.87 C565.25,771.09 565.24,773.00 562.00,773.00 C560.97,773.00 558.86,774.19 557.31,775.65 C555.77,777.10 546.17,782.65 536.00,787.97 C506.42,803.44 499.81,807.03 494.50,810.49 C489.68,813.63 477.63,820.00 476.51,820.00 C476.22,820.00 475.08,818.54 473.99,816.75 ZM 490.63 795.21 C489.96,794.13 495.16,784.86 497.00,783.85 C497.83,783.40 509.07,777.82 521.98,771.44 C540.36,762.36 546.06,759.96 548.23,760.40 C550.21,760.79 551.00,760.55 551.00,759.53 C551.00,757.20 553.21,756.57 554.62,758.49 C556.19,760.65 555.57,762.00 553.01,762.00 C551.98,762.00 550.87,762.85 550.54,763.89 C550.15,765.11 539.84,771.11 521.36,780.89 C505.63,789.20 492.40,796.00 491.95,796.00 C491.49,796.00 490.90,795.65 490.63,795.21 ZM 496.18 777.38 C496.36,776.49 498.95,774.82 502.00,773.63 C506.01,772.08 509.39,769.59 514.50,764.42 C518.35,760.53 523.53,756.42 526.00,755.29 C539.36,749.19 540.69,748.76 542.75,749.87 C544.45,750.78 544.87,750.62 545.32,748.87 C546.03,746.17 548.24,746.94 549.44,750.31 C550.59,753.59 549.54,754.82 546.95,753.20 C545.28,752.16 545.00,752.25 545.00,753.84 C545.00,756.85 542.47,758.42 520.68,768.96 C499.94,778.99 495.55,780.50 496.18,777.38 ZM 693.18 656.36 C693.35,655.45 694.17,654.36 695.00,653.92 C698.14,652.25 707.61,648.21 710.00,647.51 C711.38,647.11 717.67,644.61 724.00,641.96 C735.27,637.24 743.91,633.89 769.00,624.49 C775.88,621.91 783.68,618.91 786.35,617.83 C793.57,614.90 793.19,616.43 785.86,619.83 C782.36,621.45 775.67,624.56 771.00,626.74 C766.33,628.93 760.70,631.30 758.50,632.01 C756.30,632.72 750.67,635.10 746.00,637.29 C741.33,639.47 734.12,642.52 730.00,644.06 C725.88,645.59 716.48,649.36 709.12,652.42 C694.76,658.40 692.67,658.92 693.18,656.36 ZM 709.21 656.87 C709.42,656.25 712.49,654.61 716.04,653.23 C724.24,650.05 726.96,648.89 735.12,645.09 C738.77,643.39 742.41,642.00 743.22,642.00 C744.04,642.00 749.62,639.59 755.62,636.64 C761.63,633.69 772.83,628.77 780.52,625.71 C788.21,622.65 797.93,618.57 802.13,616.65 C809.53,613.26 827.00,606.82 827.00,607.47 C827.00,608.28 802.89,620.38 788.00,627.04 C778.39,631.34 759.82,637.88 752.65,639.51 C751.63,639.74 750.28,640.34 749.65,640.84 C749.02,641.34 747.38,642.09 746.00,642.50 C744.62,642.90 742.83,643.81 742.00,644.51 C741.17,645.22 738.45,646.48 735.95,647.32 C733.45,648.15 726.75,650.90 721.07,653.42 C710.20,658.24 708.60,658.71 709.21,656.87 ZM 721.48 659.61 C719.72,658.32 720.23,657.90 728.04,654.00 C732.69,651.68 739.20,648.77 742.50,647.54 C745.80,646.30 753.90,643.24 760.50,640.74 C775.17,635.18 777.00,634.63 777.00,635.75 C777.00,636.56 746.92,652.00 745.35,652.00 C744.97,652.00 743.95,652.61 743.08,653.36 C741.63,654.61 725.76,661.00 724.11,661.00 C723.71,661.00 722.53,660.37 721.48,659.61 ZM 632.28 681.88 C631.00,680.60 631.68,678.00 633.29,678.00 C633.88,678.00 636.20,677.15 638.43,676.12 C645.68,672.76 676.14,661.00 677.59,661.00 C679.62,661.00 679.32,662.62 676.88,664.90 C674.42,667.19 638.09,683.00 635.28,683.00 C634.25,683.00 632.90,682.50 632.28,681.88 ZM 603.68 713.54 C600.81,710.67 601.81,707.29 605.02,709.01 C606.39,709.74 606.89,709.51 607.30,707.98 C607.84,705.88 617.98,700.80 625.76,698.72 C629.31,697.77 630.26,697.84 631.54,699.11 C632.38,699.96 632.82,701.29 632.51,702.07 C631.71,704.09 616.61,711.11 611.64,711.77 C609.36,712.07 607.02,712.98 606.43,713.77 C605.51,715.02 605.14,714.99 603.68,713.54 ZM 521.00 750.12 C521.00,747.90 521.64,745.71 522.49,745.01 C525.50,742.51 536.33,737.97 538.00,738.50 C538.94,738.80 540.29,738.36 540.98,737.52 C542.74,735.40 543.50,735.61 544.85,738.57 C546.26,741.66 545.46,743.35 542.92,742.69 C541.78,742.39 540.85,742.84 540.51,743.85 C539.80,745.94 526.00,754.00 523.14,754.00 C521.32,754.00 521.00,753.42 521.00,750.12 ZM 608.04 721.54 C606.53,719.72 607.67,717.66 609.76,718.46 C610.73,718.83 612.28,717.95 613.90,716.10 C615.46,714.32 620.02,711.65 625.32,709.42 C633.07,706.15 634.31,705.88 635.60,707.18 C636.41,707.98 636.81,709.34 636.48,710.18 C635.63,712.42 617.10,721.25 614.36,720.73 C613.05,720.48 611.88,720.86 611.58,721.65 C610.91,723.41 609.55,723.37 608.04,721.54 ZM 591.04 698.54 C589.36,696.53 590.76,694.72 593.57,695.26 C595.10,695.55 596.01,695.19 596.21,694.23 C596.57,692.39 616.57,684.08 619.06,684.73 C621.85,685.45 622.18,687.84 619.72,689.44 C614.65,692.73 600.75,697.98 598.55,697.42 C597.01,697.04 596.07,697.36 595.67,698.43 C594.91,700.40 592.62,700.46 591.04,698.54 ZM 638.00 687.19 C638.00,685.23 639.39,684.51 655.73,678.05 C666.93,673.62 669.32,673.17 668.82,675.58 C668.52,677.07 664.20,679.20 647.50,686.10 C639.32,689.48 638.00,689.63 638.00,687.19 ZM 614.67 742.33 C614.30,741.97 614.00,740.34 614.00,738.72 C614.00,736.12 614.28,735.85 616.39,736.38 C618.19,736.84 618.89,736.52 619.27,735.06 C619.77,733.15 628.62,728.00 631.40,728.00 C632.98,728.00 634.49,731.40 633.56,732.90 C632.33,734.90 621.79,740.07 620.06,739.52 C618.80,739.12 618.09,739.56 617.72,740.97 C617.19,743.01 615.91,743.58 614.67,742.33 ZM 642.36 695.50 C641.27,692.65 642.82,691.40 652.64,687.21 C665.28,681.81 666.53,681.73 663.38,686.55 C661.86,688.87 646.92,697.00 644.18,697.00 C643.50,697.00 642.68,696.33 642.36,695.50 ZM 800.00 636.00 C800.00,634.51 842.19,613.90 845.00,614.03 C846.03,614.07 834.25,621.27 827.50,624.73 C817.82,629.69 800.00,636.99 800.00,636.00 ZM 617.42 728.56 C614.63,726.53 616.39,724.32 623.41,721.04 C631.39,717.31 633.00,717.22 633.00,720.46 C633.00,723.04 632.15,723.70 623.83,727.63 C619.94,729.47 618.87,729.62 617.42,728.56 ZM 603.57 702.11 C602.70,700.71 604.85,699.45 614.61,695.59 C624.87,691.54 626.28,691.30 625.82,693.66 C625.62,694.68 622.04,696.78 616.50,699.11 C607.23,703.02 604.52,703.65 603.57,702.11 ZM 520.70 739.66 C520.42,738.92 520.54,737.74 520.98,737.04 C522.10,735.22 534.07,730.09 535.72,730.72 C538.55,731.81 536.27,734.60 529.99,737.74 C522.78,741.34 521.45,741.62 520.70,739.66 ZM 730.67 664.33 C729.27,662.93 730.16,661.95 735.15,659.42 C739.82,657.06 748.28,654.04 750.31,654.01 C752.57,653.98 748.93,656.52 740.94,660.53 L 739.82 661.09 L 739.82 661.09 C732.97,664.54 731.80,665.12 731.15,664.77 C730.98,664.67 730.85,664.52 730.67,664.33 ZM 736.23 667.75 C736.72,666.18 741.35,663.78 759.25,655.84 C762.82,654.26 760.85,656.03 756.75,658.10 C754.41,659.27 751.83,660.82 751.00,661.53 C748.78,663.44 738.38,669.00 737.01,669.00 C736.36,669.00 736.01,668.44 736.23,667.75 ZM 622.00 744.64 C622.00,742.98 633.59,736.63 635.02,737.51 C636.57,738.47 635.44,739.60 629.61,742.94 C623.72,746.31 622.00,746.69 622.00,744.64 ZM 743.63 670.53 C744.19,669.07 752.90,664.56 753.67,665.33 C754.27,665.94 748.89,669.71 745.68,670.93 C743.62,671.72 743.20,671.63 743.63,670.53 ZM 611.38 730.55 C611.07,729.75 611.10,728.64 611.44,728.09 C612.41,726.53 615.00,728.00 615.00,730.11 C615.00,732.32 612.19,732.67 611.38,730.55 ZM 539.23 729.81 C539.85,727.96 542.00,727.65 542.00,729.42 C542.00,730.29 541.29,731.00 540.42,731.00 C539.55,731.00 539.01,730.47 539.23,729.81 ZM 799.00 613.00 C799.00,612.45 799.67,612.00 800.50,612.00 C801.33,612.00 802.00,612.45 802.00,613.00 C802.00,613.55 801.33,614.00 800.50,614.00 C799.67,614.00 799.00,613.55 799.00,613.00 Z" fill="rgb(84,63,52)"/>
<path d="M 733.00 530.96 C718.34,534.87 717.18,535.11 716.67,534.25 C715.95,533.07 707.00,498.23 707.00,496.64 C707.00,495.86 708.12,494.94 709.48,494.59 L 711.96 493.97 L 709.03 489.20 C701.36,476.74 694.02,452.79 694.01,440.21 C694.00,429.03 697.69,423.19 707.39,419.04 C711.55,417.27 749.51,407.00 751.93,407.00 C752.37,407.00 753.28,408.92 753.93,411.26 C755.81,417.95 763.13,429.44 765.76,429.82 C766.99,430.00 768.00,429.86 768.00,429.51 C768.00,429.17 766.22,425.94 764.04,422.33 C760.40,416.29 756.31,406.33 757.15,405.53 C757.34,405.35 766.20,402.96 776.83,400.22 C789.79,396.88 796.27,395.61 796.52,396.37 C796.72,396.99 799.87,409.20 803.53,423.50 C807.18,437.80 810.81,451.72 811.58,454.43 C812.36,457.14 813.00,460.13 813.00,461.07 C813.00,462.97 812.99,462.97 774.00,472.97 L 750.50 478.99 L 748.65 476.76 C746.29,473.91 742.49,466.33 741.62,462.75 C741.16,460.83 740.33,460.00 738.85,460.00 C736.98,460.00 736.81,460.42 737.32,463.61 C737.97,467.56 744.65,482.47 746.46,483.96 C747.18,484.56 752.40,483.65 761.04,481.41 C799.28,471.49 814.17,467.83 814.59,468.25 C815.98,469.65 825.09,506.33 824.23,507.08 C823.83,507.42 818.10,509.07 811.50,510.74 C790.65,516.01 743.92,528.05 733.00,530.96 ZM 526.19 246.25 C524.78,251.06 523.37,254.95 523.06,254.89 C521.68,254.62 486.47,243.73 486.19,243.48 C486.02,243.34 486.62,240.67 487.53,237.55 C488.43,234.44 488.95,231.31 488.67,230.59 C488.40,229.87 486.06,228.75 483.48,228.10 C479.09,226.99 478.59,227.08 475.52,229.42 C469.54,233.98 464.72,235.29 455.71,234.80 C441.50,234.04 429.91,226.89 425.07,215.90 C420.54,205.63 421.46,188.52 427.63,168.13 C435.81,141.09 446.00,126.46 459.82,121.90 C465.70,119.95 477.98,121.33 485.25,124.75 C493.92,128.82 497.49,132.15 500.94,139.37 C503.72,145.19 504.23,145.69 508.95,147.20 C511.73,148.09 514.24,148.42 514.55,147.92 C514.85,147.43 515.77,144.77 516.59,142.02 C517.41,139.26 518.58,137.00 519.19,137.00 C520.91,137.00 554.42,147.11 555.15,147.85 C555.51,148.21 553.40,156.38 550.48,166.00 C535.70,214.61 528.53,238.32 526.19,246.25 ZM 660.00 267.74 C655.33,274.43 651.28,279.93 651.00,279.95 C650.27,280.01 617.04,256.59 617.02,256.00 C617.01,255.73 619.71,251.68 623.02,247.00 L 629.03 238.50 L 626.91 236.76 C625.75,235.80 624.40,235.25 623.92,235.55 C623.44,235.85 620.70,239.45 617.84,243.55 C614.97,247.65 612.32,251.00 611.94,251.00 C611.56,251.00 608.06,248.05 604.16,244.44 C596.37,237.23 590.65,227.54 589.45,219.48 C588.92,215.99 588.35,215.00 586.89,215.00 C584.59,215.00 584.55,216.12 586.56,222.89 C587.42,225.78 587.98,228.49 587.81,228.92 C587.18,230.49 573.51,226.77 566.11,223.02 C559.88,219.87 556.70,218.60 556.17,216.63 C555.68,214.80 557.44,212.37 561.14,207.26 C561.77,206.38 562.45,205.44 563.19,204.40 C568.54,196.91 572.22,192.66 573.10,192.92 C573.87,193.15 576.34,193.38 578.59,193.42 C584.16,193.53 589.12,189.86 596.00,180.54 C599.03,176.44 601.83,173.07 602.23,173.05 C602.78,173.01 633.05,193.89 634.84,195.53 C635.02,195.70 632.96,199.14 630.25,203.17 C625.34,210.48 623.00,215.64 623.00,219.15 C623.00,222.47 624.67,221.12 629.91,213.54 C632.75,209.43 635.41,205.86 635.84,205.60 C636.26,205.34 638.97,206.76 641.85,208.77 L 647.09 212.42 L 651.50 207.12 L 668.00 218.99 C677.08,225.53 684.46,231.47 684.40,232.20 C684.35,232.93 680.75,238.48 676.40,244.54 C672.06,250.61 664.67,261.04 660.00,267.74 ZM 734.25 388.80 C727.79,393.11 721.96,396.96 721.29,397.35 C720.58,397.77 719.50,397.13 718.65,395.78 C701.60,368.71 697.76,359.81 695.87,343.00 C694.68,332.45 694.08,330.66 691.56,330.16 C690.03,329.86 689.91,330.44 690.53,335.41 C690.97,338.93 690.86,341.00 690.23,341.00 C688.41,341.00 666.59,317.46 661.22,309.70 L 655.94 302.06 L 668.65 293.57 L 681.36 285.08 L 688.02 292.02 C696.48,300.84 703.84,304.55 710.79,303.51 C715.74,302.77 721.29,300.13 729.66,294.57 C734.42,291.40 734.92,291.27 736.23,292.82 C738.36,295.36 758.89,326.54 759.54,328.24 C759.92,329.25 758.40,330.81 754.80,333.11 C736.09,345.06 733.15,355.49 742.99,374.98 L 746.01 380.96 ZM 630.31 311.98 C626.02,318.03 622.21,322.98 621.86,322.99 C620.40,323.01 601.95,308.27 595.16,301.65 C586.79,293.49 581.03,285.55 576.93,276.51 C574.72,271.64 573.53,270.14 571.55,269.76 C570.15,269.50 569.00,269.49 569.00,269.74 C569.00,270.00 570.12,272.45 571.50,275.19 C572.88,277.92 574.00,280.33 574.00,280.53 C574.00,281.29 567.11,278.54 556.45,273.53 C545.77,268.50 530.31,259.29 528.11,256.63 C527.29,255.65 528.65,253.02 533.63,245.91 C538.98,238.28 540.85,234.93 543.29,234.43 C545.02,234.08 547.04,235.15 550.79,237.13 C551.72,237.62 552.75,238.17 553.91,238.77 C562.18,243.01 566.05,244.42 570.39,244.78 C576.02,245.25 576.11,245.21 580.01,240.99 C582.86,237.90 584.31,236.99 585.23,237.70 C585.93,238.24 594.22,244.14 603.65,250.82 L 620.80 262.96 L 618.21 267.83 L 615.61 272.70 L 617.44 277.60 C618.82,281.31 621.56,284.75 628.70,291.74 L 638.13 300.98 ZM 699.72 411.91 C693.79,415.86 688.39,419.28 687.72,419.51 C687.00,419.76 673.45,400.44 655.00,372.85 C637.67,346.96 623.36,325.40 623.19,324.95 C622.87,324.12 646.26,307.98 647.72,308.02 C648.15,308.03 652.95,314.77 658.38,323.00 C664.34,332.02 668.70,337.70 669.38,337.31 C670.00,336.96 671.69,335.85 673.15,334.84 C674.61,333.83 676.23,333.00 676.75,333.00 C677.72,333.00 700.02,365.39 699.98,366.74 C699.97,367.16 698.16,368.77 695.97,370.32 C693.55,372.04 692.25,373.61 692.68,374.32 C693.06,374.97 697.61,381.74 702.77,389.37 C707.94,396.99 711.79,403.57 711.33,403.99 C710.87,404.40 705.65,407.97 699.72,411.91 ZM 222.57 236.97 C216.69,239.21 215.05,239.29 214.35,237.36 C212.71,232.77 204.75,212.42 204.34,211.75 C203.89,211.01 204.90,210.52 214.00,207.01 L 218.50 205.27 L 228.10 215.50 L 220.91 204.65 L 226.21 202.41 C229.12,201.18 231.61,200.28 231.75,200.42 C232.26,200.93 241.88,225.85 242.18,227.47 C242.41,228.69 240.90,229.80 236.58,231.57 C233.32,232.91 230.10,234.00 229.42,234.00 C228.74,234.00 226.94,232.54 225.42,230.75 L 225.36 230.68 C224.13,229.23 223.44,228.42 223.23,228.53 C222.97,228.66 223.46,230.25 224.57,233.84 L 224.61 233.98 C225.08,235.49 224.59,236.20 222.57,236.97 ZM 184.28 256.42 C181.73,257.29 178.16,258.00 176.34,258.00 C173.51,258.00 172.76,257.44 171.05,254.09 L 169.05 250.19 L 174.03 248.99 C176.77,248.34 179.30,247.32 179.67,246.73 C180.10,246.02 179.68,245.92 178.41,246.44 C177.36,246.87 174.67,247.45 172.43,247.72 C168.80,248.17 168.08,247.88 165.68,245.03 C162.39,241.13 162.27,237.38 165.28,232.90 C167.91,228.97 175.71,224.49 181.50,223.58 C185.36,222.97 185.58,223.09 187.75,226.92 C190.55,231.87 190.55,232.00 187.52,232.00 C184.40,232.00 177.00,234.91 177.00,236.13 C177.00,236.64 178.25,236.40 179.78,235.61 C181.32,234.82 184.24,233.86 186.28,233.48 C189.60,232.85 190.31,233.12 193.00,236.00 C199.23,242.67 194.91,252.80 184.28,256.42 ZM 263.60 222.95 C253.07,228.05 245.67,225.63 241.54,215.75 C237.91,207.06 240.71,198.39 248.27,194.96 C253.10,192.77 260.85,192.40 263.23,194.25 C264.68,195.38 266.98,201.73 266.99,204.67 C267.00,205.91 258.84,208.00 253.95,208.00 C252.33,208.00 251.00,208.45 251.00,209.00 C251.00,210.31 252.16,210.25 260.45,208.49 C268.23,206.84 268.48,206.97 269.53,213.15 C270.35,218.04 268.95,220.36 263.60,222.95 ZM 286.57 217.93 C281.13,219.07 275.91,220.00 274.96,220.00 C273.54,220.00 272.75,217.45 270.42,205.53 C268.87,197.58 267.86,190.80 268.18,190.48 C268.98,189.68 290.92,185.59 291.47,186.14 C291.71,186.38 292.21,188.44 292.57,190.71 L 293.23 194.84 L 288.37 195.55 C282.96,196.33 279.03,197.93 282.50,197.95 C283.60,197.95 286.30,197.54 288.50,197.03 C290.70,196.52 292.81,196.41 293.20,196.80 C293.58,197.18 294.20,199.36 294.56,201.64 L 295.22 205.78 L 289.11 206.49 C285.75,206.88 283.00,207.64 283.00,208.18 C283.00,208.72 284.24,208.91 285.75,208.61 C286.25,208.51 286.73,208.42 287.18,208.33 C292.64,207.24 294.64,206.84 295.52,207.65 C296.10,208.19 296.20,209.25 296.50,210.98 C296.88,213.26 297.03,215.30 296.83,215.50 C296.63,215.70 292.01,216.80 286.57,217.93 ZM 377.08 211.08 C374.64,213.52 373.34,214.00 369.22,214.00 C361.99,214.00 357.60,210.81 357.19,205.26 C356.79,199.71 358.40,196.61 360.98,197.99 C364.04,199.63 364.03,199.18 360.92,196.08 C359.16,194.31 358.00,192.10 358.00,190.50 C358.00,188.90 359.16,186.69 360.92,184.92 C363.40,182.45 364.64,182.00 369.00,182.00 C373.36,182.00 374.60,182.45 377.08,184.92 C380.42,188.26 381.00,193.23 378.40,196.11 C376.93,197.73 376.93,198.07 378.40,200.16 C380.89,203.72 380.40,207.75 377.08,211.08 ZM 399.03 214.48 C397.42,215.32 394.39,215.97 392.30,215.92 C387.53,215.83 381.47,213.70 381.60,212.16 C381.65,211.52 381.77,209.41 381.85,207.47 L 382.00 203.95 L 385.07 205.54 C389.06,207.60 392.50,207.13 392.50,204.51 C392.50,202.92 391.54,202.34 387.75,201.65 C382.33,200.66 382.31,200.60 384.12,190.21 L 385.25 183.75 L 391.87 184.40 C404.98,185.69 405.00,185.70 405.00,190.24 L 405.00 194.26 L 400.48 193.75 C398.00,193.47 395.72,193.64 395.43,194.12 C395.13,194.60 395.84,195.00 397.02,195.00 C400.31,195.00 405.00,200.27 405.00,203.97 C405.00,208.31 402.52,212.68 399.03,214.48 ZM 351.04 204.80 L 347.07 213.00 L 342.04 213.00 C339.27,213.00 337.00,212.76 337.00,212.46 C337.00,212.16 337.91,210.14 339.02,207.96 C340.31,205.42 341.73,204.00 342.96,204.00 C344.02,204.00 345.13,203.61 345.42,203.12 C345.72,202.64 344.04,202.47 341.69,202.73 C338.13,203.13 336.89,202.78 334.31,200.61 C330.57,197.46 329.54,193.94 331.03,189.41 C335.22,176.72 355.00,179.84 355.00,193.21 C355.00,195.12 353.27,200.18 351.04,204.80 ZM 208.03 243.48 C205.30,244.87 202.70,246.00 202.24,246.00 C201.09,246.00 188.67,219.34 189.33,218.27 C190.02,217.16 199.87,212.52 200.36,213.08 C201.15,213.98 213.00,239.34 213.00,240.13 C213.00,240.59 210.76,242.10 208.03,243.48 ZM 324.00 213.35 C322.21,213.71 319.52,214.00 318.01,214.00 C315.30,214.00 315.27,213.93 314.58,205.46 C313.92,197.35 314.01,196.81 316.19,194.87 C318.45,192.87 318.42,192.87 314.87,194.92 L 311.24 197.02 L 310.63 194.76 C310.30,193.52 310.02,191.38 310.02,190.00 C310.01,186.53 315.38,183.00 320.67,183.00 L 324.72 183.00 L 325.38 190.75 C325.75,195.01 326.32,201.70 326.65,205.60 L 327.25 212.70 ZM 467.97 181.69 C472.11,183.50 475.79,184.98 476.13,184.99 C476.48,184.99 476.99,184.14 477.27,183.09 C477.67,181.54 476.72,180.79 472.13,179.05 C469.03,177.88 463.43,174.88 459.67,172.40 C454.24,168.80 452.56,168.12 451.43,169.05 C450.66,169.70 450.27,170.62 450.56,171.10 C451.76,173.05 460.89,178.60 467.97,181.69 ZM 307.74 216.40 C303.71,217.21 301.21,217.15 300.67,216.25 C300.43,215.84 299.92,213.63 299.54,211.35 L 298.86 207.21 L 303.99 206.50 C306.82,206.11 309.26,205.95 309.43,206.15 C309.60,206.34 309.96,208.59 310.23,211.15 C310.72,215.66 310.64,215.82 307.74,216.40 ZM 493.00 188.82 C494.92,189.37 499.57,189.86 503.32,189.91 C509.31,189.99 510.11,189.79 509.81,188.25 C509.54,186.84 508.03,186.38 501.96,185.89 C497.82,185.55 493.50,184.97 492.34,184.61 C490.87,184.14 490.04,184.44 489.59,185.61 L 489.55 185.74 C489.26,186.47 489.09,186.92 489.22,187.26 C489.42,187.81 490.41,188.08 493.00,188.82 ZM 340.25 193.29 C341.49,193.53 343.62,193.78 345.00,193.83 C346.84,193.91 347.10,193.72 346.00,193.11 C343.59,191.77 338.00,190.97 338.00,191.96 C338.00,192.45 339.01,193.06 340.25,193.29 ZM 550.95 652.13 C552.68,651.54 554.21,650.97 555.00,650.63 C557.28,649.65 557.03,649.51 552.10,649.03 C550.38,648.86 548.95,648.57 547.84,648.17 C549.05,648.50 550.79,648.68 553.35,648.80 C561.24,649.15 562.04,650.47 554.92,651.42 C553.60,651.59 552.28,651.83 550.95,652.13 ZM 526.41 665.12 C518.01,672.36 510.92,681.92 506.44,692.69 C510.94,681.88 517.97,672.33 526.41,665.12 ZM 557.50 641.36 C558.78,641.50 560.09,641.71 561.41,641.98 C562.68,642.24 564.48,642.86 566.44,643.66 C563.40,642.48 560.44,641.72 557.50,641.36 ZM 545.80 647.02 C545.16,646.42 544.88,645.72 544.97,644.92 C544.99,645.49 545.20,646.10 545.61,646.75 C545.67,646.84 545.73,646.93 545.80,647.02 ZM 545.95 642.83 C546.32,642.49 546.85,642.19 547.52,641.95 C546.88,642.20 546.36,642.49 545.95,642.83 Z" fill="rgb(118,100,91)"/>
<path d="M 0.00 531.50 L 0.00 0.00 L 493.50 0.00 L 987.00 0.00 L 987.00 531.50 L 987.00 1063.00 L 493.50 1063.00 L 0.00 1063.00 L 0.00 531.50 ZM 367.43 1032.99 C371.23,1031.68 377.66,1028.45 381.70,1025.81 C388.97,1021.06 391.00,1018.39 391.00,1013.57 C391.00,1010.36 387.45,1006.19 384.41,1005.81 C381.92,1005.51 381.86,1005.30 381.68,997.00 C381.53,989.79 381.03,987.50 378.40,981.95 C373.23,971.04 366.05,964.57 355.72,961.53 C351.84,960.38 351.46,959.96 350.79,956.04 C350.39,953.70 349.57,951.19 348.96,950.46 C348.11,949.43 348.80,948.27 352.03,945.35 C356.71,941.12 363.89,932.10 366.30,927.40 C367.89,924.31 367.96,924.29 378.20,923.60 C392.60,922.63 413.34,919.62 427.50,916.44 C438.98,913.86 439.91,913.80 449.00,915.00 C454.23,915.69 463.23,916.07 469.01,915.86 L 479.52 915.47 L 479.22 922.48 C478.87,930.80 481.25,936.01 487.18,939.85 L 490.80 942.20 L 488.89 946.51 C485.80,953.51 485.53,958.68 487.90,965.70 C489.50,970.45 489.75,972.52 488.99,974.52 C487.74,977.82 487.71,983.60 488.95,985.90 C489.47,986.88 492.01,989.41 494.60,991.53 C500.50,996.37 509.05,998.39 530.65,1000.08 C551.49,1001.70 603.78,1000.77 618.00,998.52 C641.42,994.81 643.33,989.08 622.32,985.53 C612.25,983.83 585.40,982.01 570.25,982.00 C564.61,982.00 560.01,981.66 560.03,981.25 C560.05,980.84 563.74,978.47 568.24,976.00 C585.85,966.31 602.64,950.82 614.10,933.69 C621.51,922.62 625.60,914.57 630.47,901.54 C633.82,892.58 634.08,891.20 633.07,887.84 C631.10,881.27 625.18,878.46 618.57,880.97 C616.35,881.82 615.73,881.56 613.81,878.96 C610.99,875.15 602.81,869.53 597.00,867.42 C594.08,866.36 589.38,865.79 583.63,865.80 C575.46,865.82 574.16,866.11 567.44,869.43 C559.24,873.48 553.35,879.38 549.93,886.94 L 547.79 891.68 L 544.18 889.84 C542.20,888.83 539.43,887.99 538.04,887.98 C532.44,887.95 532.39,886.62 537.73,879.27 C540.50,875.47 543.46,871.01 544.31,869.36 C545.16,867.72 548.48,864.65 551.68,862.54 C563.75,854.59 583.49,838.38 597.50,824.93 C602.10,820.51 605.26,818.49 611.06,816.27 C627.13,810.09 639.90,798.32 647.41,782.76 C651.58,774.12 654.98,763.66 655.02,759.36 C655.05,755.41 656.41,754.72 660.60,756.54 C677.04,763.66 682.97,764.59 689.80,761.10 C691.84,760.06 696.34,756.69 699.78,753.62 C703.23,750.54 707.05,747.82 708.27,747.58 C725.85,744.01 731.77,741.06 738.05,732.71 C740.04,730.07 742.75,724.90 744.08,721.21 C746.17,715.40 746.50,712.74 746.50,701.42 L 746.50 688.34 L 777.50 670.49 C794.55,660.68 830.74,639.82 857.93,624.14 C895.21,602.63 908.47,595.46 911.93,594.93 C914.61,594.52 916.75,594.63 917.11,595.20 C917.45,595.74 918.00,599.12 918.34,602.73 C918.68,606.33 919.65,610.34 920.50,611.64 C922.36,614.48 926.04,614.72 928.36,612.16 C929.82,610.54 929.89,609.37 928.94,602.56 C928.35,598.29 928.01,594.67 928.18,594.51 C928.36,594.35 932.19,593.90 936.69,593.51 L 944.88 592.80 L 949.35 601.71 C954.66,612.28 956.06,613.71 959.81,612.40 C963.81,611.00 963.85,606.95 959.93,598.86 L 956.69 592.15 L 960.94 587.08 C963.27,584.28 965.48,582.03 965.84,582.07 C966.20,582.11 968.68,584.84 971.34,588.13 C977.00,595.15 978.17,595.78 981.51,593.59 C985.24,591.14 984.59,588.27 978.54,580.32 L 973.09 573.16 L 976.04 569.44 C977.67,567.40 978.96,564.77 978.92,563.61 C978.87,562.45 975.16,554.08 970.67,545.00 L 962.50 528.50 L 956.91 528.20 L 951.31 527.91 L 948.91 518.28 C947.58,512.99 945.91,508.06 945.18,507.33 C943.30,505.44 940.32,505.68 938.11,507.89 C936.12,509.88 936.31,513.01 939.03,523.12 C939.61,525.28 939.82,527.49 939.49,528.02 C939.15,528.56 936.22,529.00 932.96,529.00 L 927.03 529.00 L 924.39 523.75 C918.97,513.00 916.02,510.86 911.83,514.65 C909.33,516.92 909.44,517.58 914.00,527.50 C916.20,532.28 917.99,536.72 917.97,537.35 C917.95,537.98 915.73,540.97 913.03,544.00 L 908.12 549.50 L 901.78 543.25 C895.36,536.91 891.88,535.52 889.20,538.20 C886.46,540.94 887.91,544.36 894.73,551.23 L 901.45 558.00 L 898.98 560.35 C897.61,561.63 887.28,566.32 876.00,570.76 C864.72,575.20 840.20,584.91 821.50,592.32 C745.08,622.64 718.79,633.00 718.33,633.00 C718.18,633.00 717.36,631.65 716.50,630.01 C714.50,626.12 711.09,623.96 704.68,622.51 C698.64,621.13 699.10,624.52 700.98,595.47 C705.76,521.36 684.98,445.28 642.94,383.00 C607.39,330.34 561.91,290.71 505.84,263.52 C471.63,246.94 437.45,236.74 398.00,231.35 C378.94,228.74 328.34,228.73 309.50,231.33 C245.03,240.23 190.59,262.68 140.09,301.18 L 134.68 305.31 L 135.36 291.79 C137.52,248.63 152.02,201.36 179.20,148.78 C189.37,129.12 201.93,108.00 203.46,108.00 C204.16,108.00 208.95,109.99 214.12,112.43 C243.24,126.19 281.73,135.00 312.66,135.00 C323.73,135.00 324.47,135.13 330.18,138.18 C333.45,139.92 339.59,144.69 343.82,148.76 C353.98,158.56 358.52,160.54 364.53,157.81 C372.75,154.06 371.40,140.96 360.94,123.00 C350.12,104.43 331.07,88.75 312.74,83.34 C287.58,75.92 258.09,54.05 233.75,24.77 C224.05,13.10 220.70,11.00 211.79,11.00 C204.00,11.01 200.20,13.11 196.01,19.72 C190.99,27.67 158.11,93.98 147.29,118.00 C115.76,187.98 89.83,254.01 68.33,319.00 C61.78,338.78 53.83,363.80 51.48,372.00 C50.77,374.48 47.68,385.21 44.60,395.86 C41.52,406.51 37.40,421.29 35.43,428.70 C33.46,436.11 30.95,444.27 29.85,446.84 C26.89,453.73 18.47,479.30 16.14,488.50 C-1.26,557.13 2.44,632.63 26.29,696.00 C31.96,711.06 33.30,714.17 39.93,727.72 C56.52,761.67 75.84,789.57 100.02,814.50 C120.04,835.14 136.07,849.04 155.00,862.15 C181.68,880.62 215.62,897.62 243.50,906.47 C248.45,908.04 252.91,909.68 253.40,910.12 C253.92,910.57 253.24,913.37 251.79,916.70 C246.90,928.02 245.59,935.34 245.59,951.50 C245.59,965.10 245.83,967.20 248.20,974.00 C251.37,983.08 256.64,992.60 262.12,999.14 C264.95,1002.52 265.77,1004.14 264.84,1004.47 C264.10,1004.73 258.04,1005.64 251.38,1006.49 C210.07,1011.75 221.16,1022.19 271.00,1024.96 C281.17,1025.53 292.42,1026.15 296.00,1026.34 C299.78,1026.54 305.64,1027.83 310.00,1029.42 C324.18,1034.60 332.23,1035.95 347.00,1035.65 C358.13,1035.42 361.71,1034.95 367.43,1032.99 ZM 733.00 530.96 C743.92,528.05 790.65,516.01 811.50,510.74 C818.10,509.07 823.83,507.42 824.23,507.08 C825.09,506.33 815.98,469.65 814.59,468.25 C814.17,467.83 799.28,471.49 761.04,481.41 C752.40,483.65 747.18,484.56 746.46,483.96 C744.65,482.47 737.97,467.56 737.32,463.61 C736.81,460.42 736.98,460.00 738.85,460.00 C740.33,460.00 741.16,460.83 741.62,462.75 C742.49,466.33 746.29,473.91 748.65,476.76 L 750.50 478.99 L 774.00 472.97 C812.99,462.97 813.00,462.97 813.00,461.07 C813.00,460.13 812.36,457.14 811.58,454.43 C810.81,451.72 807.18,437.80 803.53,423.50 C799.87,409.20 796.72,396.99 796.52,396.37 C796.27,395.61 789.79,396.88 776.83,400.22 C766.20,402.96 757.34,405.35 757.15,405.53 C756.31,406.33 760.40,416.29 764.04,422.33 C766.22,425.94 768.00,429.17 768.00,429.51 C768.00,429.86 766.99,430.00 765.76,429.82 C763.13,429.44 755.81,417.95 753.93,411.26 C753.28,408.92 752.37,407.00 751.93,407.00 C749.51,407.00 711.55,417.27 707.39,419.04 C697.69,423.19 694.00,429.03 694.01,440.21 C694.02,452.79 701.36,476.74 709.03,489.20 L 711.96 493.97 L 709.48 494.59 C708.12,494.94 707.00,495.86 707.00,496.64 C707.00,498.23 715.95,533.07 716.67,534.25 C717.18,535.11 718.34,534.87 733.00,530.96 ZM 699.72 411.91 C705.65,407.97 710.87,404.40 711.33,403.99 C711.79,403.57 707.94,396.99 702.77,389.37 C697.61,381.74 693.06,374.97 692.68,374.32 C692.25,373.61 693.55,372.04 695.97,370.32 C698.16,368.77 699.97,367.16 699.98,366.74 C700.02,365.39 677.72,333.00 676.75,333.00 C676.23,333.00 674.61,333.83 673.15,334.84 C671.69,335.85 670.00,336.96 669.38,337.31 C668.70,337.70 664.34,332.02 658.38,323.00 C652.95,314.77 648.15,308.03 647.72,308.02 C646.26,307.98 622.87,324.12 623.19,324.95 C623.36,325.40 637.67,346.96 655.00,372.85 C673.45,400.44 687.00,419.76 687.72,419.51 C688.39,419.28 693.79,415.86 699.72,411.91 ZM 734.25 388.80 L 746.01 380.96 L 742.99 374.98 C733.15,355.49 736.09,345.06 754.80,333.11 C758.40,330.81 759.92,329.25 759.54,328.24 C758.89,326.54 738.36,295.36 736.23,292.82 C734.92,291.27 734.42,291.40 729.66,294.57 C721.29,300.13 715.74,302.77 710.79,303.51 C703.84,304.55 696.48,300.84 688.02,292.02 L 681.36 285.08 L 668.65 293.57 L 655.94 302.06 L 661.22 309.70 C666.59,317.46 688.41,341.00 690.23,341.00 C690.86,341.00 690.97,338.93 690.53,335.41 C689.91,330.44 690.03,329.86 691.56,330.16 C694.08,330.66 694.68,332.45 695.87,343.00 C697.76,359.81 701.60,368.71 718.65,395.78 C719.50,397.13 720.58,397.77 721.29,397.35 C721.96,396.96 727.79,393.11 734.25,388.80 ZM 630.31 311.98 L 638.13 300.98 L 628.70 291.74 C621.56,284.75 618.82,281.31 617.44,277.60 L 615.61 272.70 L 618.21 267.83 L 620.80 262.96 L 603.65 250.82 C594.22,244.14 585.93,238.24 585.23,237.70 C584.31,236.99 582.86,237.90 580.01,240.99 C576.11,245.21 576.02,245.25 570.39,244.78 C566.05,244.42 562.18,243.01 553.91,238.77 C541.42,232.35 543.70,231.55 533.63,245.91 C528.65,253.02 527.29,255.65 528.11,256.63 C530.31,259.29 545.77,268.50 556.45,273.53 C567.11,278.54 574.00,281.29 574.00,280.53 C574.00,280.33 572.88,277.92 571.50,275.19 C570.12,272.45 569.00,270.00 569.00,269.74 C569.00,269.49 570.15,269.50 571.55,269.76 C573.53,270.14 574.72,271.64 576.93,276.51 C581.03,285.55 586.79,293.49 595.16,301.65 C601.95,308.27 620.40,323.01 621.86,322.99 C622.21,322.98 626.02,318.03 630.31,311.98 ZM 660.00 267.74 C664.67,261.04 672.06,250.61 676.40,244.54 C680.75,238.48 684.35,232.93 684.40,232.20 C684.46,231.47 677.08,225.53 668.00,218.99 L 651.50 207.12 L 649.29 209.77 L 647.09 212.42 L 641.85 208.77 C638.97,206.76 636.26,205.34 635.84,205.60 C635.41,205.86 632.75,209.43 629.91,213.54 C624.67,221.12 623.00,222.47 623.00,219.15 C623.00,215.64 625.34,210.48 630.25,203.17 C632.96,199.14 635.02,195.70 634.84,195.53 C633.05,193.89 602.78,173.01 602.23,173.05 C601.83,173.07 599.03,176.44 596.00,180.54 C589.12,189.86 584.16,193.53 578.59,193.42 C576.34,193.38 573.87,193.15 573.10,192.92 C572.22,192.66 568.54,196.91 563.19,204.40 C553.40,218.10 553.14,216.45 566.11,223.02 C573.51,226.77 587.18,230.49 587.81,228.92 C587.98,228.49 587.42,225.78 586.56,222.89 C584.55,216.12 584.59,215.00 586.89,215.00 C588.35,215.00 588.92,215.99 589.45,219.48 C590.65,227.54 596.37,237.23 604.16,244.44 C608.06,248.05 611.56,251.00 611.94,251.00 C612.32,251.00 614.97,247.65 617.84,243.55 C620.70,239.45 623.44,235.85 623.92,235.55 C624.40,235.25 625.75,235.80 626.91,236.76 L 629.03 238.50 L 623.02 247.00 C619.71,251.68 617.01,255.73 617.02,256.00 C617.04,256.59 650.27,280.01 651.00,279.95 C651.28,279.93 655.33,274.43 660.00,267.74 ZM 184.28 256.42 C194.91,252.80 199.23,242.67 193.00,236.00 C190.31,233.12 189.60,232.85 186.28,233.48 C184.24,233.86 181.32,234.82 179.78,235.61 C178.25,236.40 177.00,236.64 177.00,236.13 C177.00,234.91 184.40,232.00 187.52,232.00 C190.55,232.00 190.55,231.87 187.75,226.92 C185.58,223.09 185.36,222.97 181.50,223.58 C175.71,224.49 167.91,228.97 165.28,232.90 C162.27,237.38 162.39,241.13 165.68,245.03 C168.08,247.88 168.80,248.17 172.43,247.72 C174.67,247.45 177.36,246.87 178.41,246.44 C179.68,245.92 180.10,246.02 179.67,246.73 C179.30,247.32 176.77,248.34 174.03,248.99 L 169.05 250.19 L 171.05 254.09 C172.76,257.44 173.51,258.00 176.34,258.00 C178.16,258.00 181.73,257.29 184.28,256.42 ZM 526.19 246.25 C528.53,238.32 535.70,214.61 550.48,166.00 C553.40,156.38 555.51,148.21 555.15,147.85 C554.42,147.11 520.91,137.00 519.19,137.00 C518.58,137.00 517.41,139.26 516.59,142.02 C515.77,144.77 514.85,147.43 514.55,147.92 C514.24,148.42 511.73,148.09 508.95,147.20 C504.23,145.69 503.72,145.19 500.94,139.37 C497.49,132.15 493.92,128.82 485.25,124.75 C477.98,121.33 465.70,119.95 459.82,121.90 C446.00,126.46 435.81,141.09 427.63,168.13 C421.46,188.52 420.54,205.63 425.07,215.90 C429.91,226.89 441.50,234.04 455.71,234.80 C464.72,235.29 469.54,233.98 475.52,229.42 C478.59,227.08 479.09,226.99 483.48,228.10 C486.06,228.75 488.40,229.87 488.67,230.59 C488.95,231.31 488.43,234.44 487.53,237.55 C486.62,240.67 486.02,243.34 486.19,243.48 C486.47,243.73 521.68,254.62 523.06,254.89 C523.37,254.95 524.78,251.06 526.19,246.25 ZM 208.03 243.48 C210.76,242.10 213.00,240.59 213.00,240.13 C213.00,239.34 201.15,213.98 200.36,213.08 C199.87,212.52 190.02,217.16 189.33,218.27 C188.67,219.34 201.09,246.00 202.24,246.00 C202.70,246.00 205.30,244.87 208.03,243.48 ZM 222.57 236.97 C224.59,236.20 225.08,235.49 224.61,233.98 C222.57,227.35 222.56,227.38 225.42,230.75 C226.94,232.54 228.74,234.00 229.42,234.00 C230.10,234.00 233.32,232.91 236.58,231.57 C240.90,229.80 242.41,228.69 242.18,227.47 C241.88,225.85 232.26,200.93 231.75,200.42 C231.61,200.28 229.12,201.18 226.21,202.41 L 220.91 204.65 L 224.51 210.08 L 228.10 215.50 L 223.30 210.39 L 218.50 205.27 L 214.00 207.01 C204.90,210.52 203.89,211.01 204.34,211.75 C204.75,212.42 212.71,232.77 214.35,237.36 C215.05,239.29 216.69,239.21 222.57,236.97 ZM 263.60 222.95 C268.95,220.36 270.35,218.04 269.53,213.15 C268.48,206.97 268.23,206.84 260.45,208.49 C252.16,210.25 251.00,210.31 251.00,209.00 C251.00,208.45 252.33,208.00 253.95,208.00 C258.84,208.00 267.00,205.91 266.99,204.67 C266.98,201.73 264.68,195.38 263.23,194.25 C260.85,192.40 253.10,192.77 248.27,194.96 C240.71,198.39 237.91,207.06 241.54,215.75 C245.67,225.63 253.07,228.05 263.60,222.95 ZM 286.57 217.93 C292.01,216.80 296.63,215.70 296.83,215.50 C297.03,215.30 296.88,213.26 296.50,210.98 C295.72,206.40 296.29,206.52 285.75,208.61 C284.24,208.91 283.00,208.72 283.00,208.18 C283.00,207.64 285.75,206.88 289.11,206.49 L 295.22 205.78 L 294.56 201.64 C294.20,199.36 293.58,197.18 293.20,196.80 C292.81,196.41 290.70,196.52 288.50,197.03 C286.30,197.54 283.60,197.95 282.50,197.95 C279.03,197.93 282.96,196.33 288.37,195.55 L 293.23 194.84 L 292.57 190.71 C292.21,188.44 291.71,186.38 291.47,186.14 C290.92,185.59 268.98,189.68 268.18,190.48 C267.86,190.80 268.87,197.58 270.42,205.53 C272.75,217.45 273.54,220.00 274.96,220.00 C275.91,220.00 281.13,219.07 286.57,217.93 ZM 307.74 216.40 C310.64,215.82 310.72,215.66 310.23,211.15 C309.96,208.59 309.60,206.34 309.43,206.15 C309.26,205.95 306.82,206.11 303.99,206.50 L 298.86 207.21 L 299.54 211.35 C299.92,213.63 300.43,215.84 300.67,216.25 C301.21,217.15 303.71,217.21 307.74,216.40 ZM 399.03 214.48 C402.52,212.68 405.00,208.31 405.00,203.97 C405.00,200.27 400.31,195.00 397.02,195.00 C395.84,195.00 395.13,194.60 395.43,194.12 C395.72,193.64 398.00,193.47 400.48,193.75 L 405.00 194.26 L 405.00 190.24 C405.00,185.70 404.98,185.69 391.87,184.40 L 385.25 183.75 L 384.12 190.21 C382.31,200.60 382.33,200.66 387.75,201.65 C391.54,202.34 392.50,202.92 392.50,204.51 C392.50,207.13 389.06,207.60 385.07,205.54 L 382.00 203.95 L 381.85 207.47 C381.77,209.41 381.65,211.52 381.60,212.16 C381.47,213.70 387.53,215.83 392.30,215.92 C394.39,215.97 397.42,215.32 399.03,214.48 ZM 324.00 213.35 L 327.25 212.70 L 326.65 205.60 C326.32,201.70 325.75,195.01 325.38,190.75 L 324.72 183.00 L 320.67 183.00 C315.38,183.00 310.01,186.53 310.02,190.00 C310.02,191.38 310.30,193.52 310.63,194.76 L 311.24 197.02 L 314.87 194.92 C318.42,192.87 318.45,192.87 316.19,194.87 C314.01,196.81 313.92,197.35 314.58,205.46 C315.27,213.93 315.30,214.00 318.01,214.00 C319.52,214.00 322.21,213.71 324.00,213.35 ZM 377.08 211.08 C380.40,207.75 380.89,203.72 378.40,200.16 C376.93,198.07 376.93,197.73 378.40,196.11 C381.00,193.23 380.42,188.26 377.08,184.92 C374.60,182.45 373.36,182.00 369.00,182.00 C364.64,182.00 363.40,182.45 360.92,184.92 C359.16,186.69 358.00,188.90 358.00,190.50 C358.00,192.10 359.16,194.31 360.92,196.08 C364.03,199.18 364.04,199.63 360.98,197.99 C358.40,196.61 356.79,199.71 357.19,205.26 C357.60,210.81 361.99,214.00 369.22,214.00 C373.34,214.00 374.64,213.52 377.08,211.08 ZM 351.04 204.80 C353.27,200.18 355.00,195.12 355.00,193.21 C355.00,179.84 335.22,176.72 331.03,189.41 C329.54,193.94 330.57,197.46 334.31,200.61 C336.89,202.78 338.13,203.13 341.69,202.73 C344.04,202.47 345.72,202.64 345.42,203.12 C345.13,203.61 344.02,204.00 342.96,204.00 C341.73,204.00 340.31,205.42 339.02,207.96 C337.91,210.14 337.00,212.16 337.00,212.46 C337.00,212.76 339.27,213.00 342.04,213.00 L 347.07 213.00 L 351.04 204.80 ZM 336.35 1028.99 C321.86,1027.00 304.20,1020.88 289.00,1012.59 C277.85,1006.51 264.61,993.02 259.25,982.29 C253.39,970.53 251.60,961.50 252.30,947.11 C252.62,940.72 253.61,932.80 254.51,929.50 C256.51,922.20 260.95,912.00 262.14,912.00 C263.43,912.00 263.18,913.74 261.39,917.22 C258.78,922.27 256.03,937.80 256.01,947.59 C256.00,958.82 258.57,969.46 263.69,979.30 C268.81,989.16 283.49,1003.80 294.39,1009.94 C322.48,1025.76 358.08,1028.41 375.78,1016.00 C380.37,1012.78 384.00,1012.10 384.00,1014.45 C384.00,1017.49 369.64,1025.46 360.00,1027.77 C353.12,1029.41 343.17,1029.93 336.35,1028.99 ZM 327.00 1011.10 C297.92,1004.68 276.22,987.10 268.86,964.00 C266.03,955.12 266.03,940.52 268.85,929.28 C271.27,919.67 273.37,915.97 276.37,916.07 C281.42,916.22 299.43,920.78 297.76,921.48 C293.98,923.06 293.56,933.35 297.10,937.62 C297.75,938.40 298.34,941.86 298.42,945.30 C298.59,952.91 300.99,956.85 307.32,959.91 C313.01,962.67 318.93,962.52 327.50,959.41 C337.38,955.82 339.59,955.48 340.34,957.44 C341.02,959.20 337.66,961.00 333.68,961.00 C330.02,961.00 319.37,966.62 314.46,971.14 C309.77,975.47 305.00,983.37 305.00,986.81 C305.00,989.46 308.40,992.22 311.17,991.83 C312.76,991.60 314.31,990.00 316.04,986.79 C319.70,980.00 322.71,977.12 329.50,973.87 C334.57,971.45 336.75,971.00 343.55,971.00 C350.22,971.00 352.51,971.45 356.81,973.59 C366.61,978.48 371.22,987.11 370.90,999.99 L 370.71 1007.24 L 365.11 1009.78 C357.41,1013.27 339.63,1013.89 327.00,1011.10 ZM 496.37 982.45 C493.74,978.43 495.75,977.42 502.13,979.54 C506.87,981.12 508.55,981.18 517.61,980.13 C548.20,976.57 577.12,960.81 595.91,937.46 C606.05,924.84 613.88,909.62 617.99,894.50 C619.41,889.28 620.40,888.04 623.14,888.02 C625.97,887.99 625.92,890.43 622.89,898.98 C616.43,917.22 605.18,935.04 591.59,948.54 C568.61,971.36 536.57,984.97 505.77,984.99 C498.59,985.00 497.93,984.82 496.37,982.45 ZM 503.45 968.45 C496.87,965.20 495.25,957.39 499.45,949.10 C501.76,944.55 502.17,944.23 506.73,943.63 C514.62,942.58 517.54,939.19 515.39,933.58 C514.68,931.73 510.29,931.51 504.77,933.05 C497.14,935.17 488.96,930.21 489.03,923.50 C489.06,920.13 492.69,913.25 495.37,911.49 C497.86,909.86 497.98,909.90 501.01,913.35 C506.55,919.66 513.16,920.30 521.75,915.36 C526.63,912.55 530.00,906.91 530.00,901.54 C530.00,898.21 530.20,898.00 533.25,898.00 C537.43,898.00 542.82,900.76 545.33,904.19 C547.03,906.52 547.13,907.27 546.07,909.84 C545.39,911.47 543.75,913.83 542.42,915.08 C539.15,918.15 539.21,922.43 542.56,924.63 C544.98,926.22 545.26,926.20 547.75,924.34 C549.20,923.26 551.76,920.67 553.44,918.59 C556.24,915.14 556.51,914.15 556.64,906.85 C556.88,892.81 561.95,883.83 572.44,878.87 C584.28,873.27 597.80,876.25 605.91,886.24 L 608.33 889.21 L 606.05 896.35 C597.53,923.12 577.48,946.42 552.02,959.15 C534.92,967.69 511.14,972.25 503.45,968.45 ZM 314.50 951.27 C311.28,950.50 309.00,947.89 309.00,944.97 C309.00,942.85 310.22,941.31 314.48,938.02 C331.16,925.15 343.69,906.42 348.96,886.47 C353.17,870.54 354.17,842.95 350.48,844.37 C349.75,844.65 347.59,845.17 345.69,845.53 L 342.25 846.18 L 341.71 860.34 C340.96,879.84 336.81,894.27 327.98,908.03 L 325.04 912.61 L 316.77 911.77 C295.20,909.55 265.03,902.79 244.00,895.46 C192.97,877.68 149.75,850.09 111.49,810.87 C83.88,782.56 66.14,757.21 48.63,721.00 C33.20,689.12 23.87,657.70 18.34,619.00 C15.80,601.22 15.79,550.86 18.32,533.18 C22.94,500.93 29.94,475.05 41.91,445.96 C45.18,438.02 47.44,431.27 46.94,430.96 C44.72,429.59 70.37,344.30 87.68,295.50 C119.77,205.04 146.89,140.55 184.20,66.00 C205.59,23.27 206.94,21.00 210.95,21.00 C215.55,21.00 218.10,22.69 223.50,29.32 C231.02,38.56 248.53,56.41 257.00,63.48 C272.89,76.73 290.95,87.31 306.71,92.60 C323.31,98.17 334.86,106.03 344.64,118.40 C351.56,127.16 357.75,138.71 358.72,144.68 L 359.34 148.50 L 350.64 140.36 C345.46,135.51 339.21,130.80 335.22,128.73 C328.61,125.31 328.24,125.24 312.62,124.61 C277.08,123.16 246.90,115.98 217.11,101.87 C204.17,95.74 200.86,95.01 197.32,97.49 C191.25,101.74 160.20,160.24 149.29,188.00 C130.65,235.42 122.23,278.76 124.52,315.46 C125.20,326.30 125.36,326.99 127.00,325.79 C127.96,325.08 134.04,320.14 140.50,314.81 C159.17,299.41 179.33,286.36 201.79,275.11 C261.01,245.45 325.34,234.18 393.00,241.60 C475.33,250.64 555.24,292.94 609.00,355.95 C656.36,411.46 683.66,476.46 690.08,549.00 C692.43,575.57 690.00,616.99 684.69,640.87 L 683.50 646.23 L 674.50 650.12 C669.55,652.26 655.70,657.91 643.72,662.67 L 621.95 671.32 L 617.72 668.16 C615.40,666.42 610.58,663.34 607.00,661.33 C603.42,659.31 600.32,657.52 600.11,657.36 C599.90,657.19 601.30,655.30 603.24,653.16 C608.53,647.30 609.50,643.40 609.50,628.00 C609.50,615.00 609.39,614.28 606.50,608.50 C602.46,600.41 598.74,598.00 590.30,598.00 C581.07,598.00 577.40,600.40 570.18,611.13 C568.47,613.68 566.27,616.12 565.28,616.56 C564.30,617.01 556.30,617.62 547.51,617.93 C533.08,618.44 531.49,618.68 531.17,620.32 C530.98,621.33 531.61,623.02 532.57,624.07 C534.11,625.77 535.74,626.00 546.52,626.00 C563.76,626.00 568.65,624.93 573.00,620.22 C574.92,618.13 577.96,614.30 579.74,611.70 C583.58,606.09 586.54,604.50 591.43,605.42 C599.33,606.90 602.52,614.91 601.85,631.61 C601.36,643.63 599.62,647.40 593.01,650.75 C587.23,653.68 583.69,653.06 574.10,647.43 C570.03,645.03 564.32,642.58 561.41,641.98 C554.13,640.47 546.99,641.04 545.61,643.25 C543.68,646.33 546.05,648.44 552.10,649.03 C557.03,649.51 557.28,649.65 555.00,650.63 C553.62,651.23 550.03,652.49 547.00,653.44 C529.78,658.86 514.26,673.88 506.44,692.69 C504.89,696.44 503.53,699.63 503.43,699.80 C503.32,699.96 501.18,698.71 498.67,697.01 C491.65,692.27 474.35,684.35 466.00,682.05 C450.68,677.84 429.17,677.43 414.50,681.08 C393.05,686.41 373.19,701.23 358.60,722.80 L 351.69 733.00 L 347.10 733.00 C336.35,732.99 313.53,727.53 301.54,722.09 C292.61,718.04 282.59,711.37 275.31,704.63 L 269.12 698.89 L 265.06 701.58 C262.83,703.06 261.00,704.61 261.00,705.04 C261.00,705.46 264.21,708.78 268.13,712.41 C286.57,729.49 308.81,739.10 339.00,743.05 C343.67,743.66 347.66,744.32 347.85,744.52 C348.05,744.72 347.35,747.72 346.30,751.19 L 344.39 757.50 L 338.45 757.26 C312.35,756.20 282.85,743.82 266.54,727.09 C263.81,724.29 261.11,722.01 260.54,722.03 C259.97,722.04 257.79,723.35 255.71,724.93 L 251.92 727.80 L 258.71 734.53 C270.70,746.42 287.16,756.09 305.24,761.87 C315.58,765.18 329.77,768.00 336.05,768.00 C341.89,768.00 343.06,768.72 341.94,771.65 C340.73,774.84 340.74,782.86 341.96,789.94 C342.49,793.00 343.63,800.00 344.50,805.50 C347.34,823.39 355.24,843.36 365.71,859.11 L 370.29 865.99 L 369.61 875.81 C367.08,912.60 352.55,937.60 327.79,947.78 C319.01,951.39 317.11,951.89 314.50,951.27 ZM 501.88 642.23 C505.97,634.22 505.53,625.05 500.71,617.90 C498.85,615.13 497.78,614.50 494.97,614.50 C490.54,614.50 490.08,616.56 493.42,621.48 C497.19,627.04 497.67,631.35 495.17,637.27 C492.74,643.03 493.54,646.00 497.51,646.00 C499.34,646.00 500.45,645.04 501.88,642.23 ZM 594.39 644.47 C596.72,642.13 597.99,636.31 597.97,628.00 C597.95,615.54 593.27,608.64 587.10,611.94 C580.53,615.46 578.92,636.18 584.69,643.04 C587.49,646.37 591.85,647.01 594.39,644.47 ZM 472.82 628.83 C472.45,626.33 471.11,625.64 469.10,626.92 C467.15,628.15 468.50,631.00 471.04,631.00 C472.63,631.00 473.06,630.47 472.82,628.83 ZM 451.00 623.38 C451.00,622.57 449.96,622.00 448.50,622.00 C445.85,622.00 445.21,623.81 447.18,625.78 C448.56,627.16 451.00,625.62 451.00,623.38 ZM 636.81 609.74 C637.21,607.67 634.32,606.28 632.80,607.80 C631.28,609.32 632.67,612.21 634.74,611.81 C635.69,611.63 636.63,610.69 636.81,609.74 ZM 461.00 608.06 C461.00,606.99 460.51,605.82 459.91,605.45 C458.38,604.50 456.61,606.55 457.34,608.43 C458.19,610.67 461.00,610.38 461.00,608.06 ZM 618.82 604.17 C619.06,602.56 618.62,602.00 617.13,602.00 C614.50,602.00 613.51,603.71 615.06,605.58 C616.69,607.53 618.42,606.89 618.82,604.17 ZM 565.82 599.04 C573.37,597.00 576.95,595.48 579.19,593.37 C582.62,590.15 585.00,585.31 585.00,581.56 C585.00,579.51 585.90,578.67 589.96,576.92 C613.25,566.90 625.19,514.21 614.42,469.00 C610.01,450.46 601.02,435.58 591.54,431.12 C570.00,421.00 550.68,446.69 546.94,490.42 C544.59,517.79 550.26,549.32 559.97,562.95 C561.08,564.52 562.00,566.19 562.00,566.65 C561.99,567.12 558.25,568.23 553.66,569.11 C543.43,571.10 539.60,572.84 539.19,575.69 C538.67,579.30 542.08,580.35 548.25,578.51 C561.78,574.47 573.68,574.66 575.98,578.97 C579.02,584.64 575.15,588.39 563.00,591.56 C545.14,596.23 546.00,595.89 546.00,598.34 C546.00,599.58 546.56,601.17 547.25,601.86 C548.73,603.35 551.40,602.94 565.82,599.04 ZM 630.56 588.10 C630.19,587.49 629.01,587.00 627.94,587.00 C625.75,587.00 625.18,590.53 627.25,591.30 C628.91,591.91 631.42,589.49 630.56,588.10 ZM 504.10 585.45 C512.41,581.15 520.13,569.14 525.35,552.40 C534.85,521.91 532.09,475.09 519.37,450.88 C512.31,437.46 505.41,432.06 495.22,432.02 C488.35,431.99 484.47,433.71 479.20,439.10 C463.81,454.87 456.18,490.26 460.04,527.92 C464.28,569.29 484.45,595.61 504.10,585.45 ZM 305.64 930.31 C305.29,929.95 305.00,928.26 305.00,926.53 C305.00,924.81 304.44,922.80 303.75,922.07 C302.72,920.97 303.20,920.85 306.50,921.36 C308.70,921.70 311.79,921.98 313.37,921.99 C315.84,922.00 316.07,922.22 314.97,923.54 C312.63,926.35 306.29,930.96 305.64,930.31 ZM 374.02 911.88 C374.04,911.12 374.92,907.24 375.98,903.25 C377.04,899.26 378.41,892.29 379.03,887.75 C379.66,883.21 380.34,879.33 380.55,879.12 C380.76,878.91 383.53,881.11 386.71,884.01 C394.62,891.25 401.14,895.95 411.51,901.89 C416.59,904.81 419.72,907.15 418.91,907.43 C416.52,908.26 390.96,911.84 382.25,912.57 C375.57,913.13 374.00,913.00 374.02,911.88 ZM 509.05 906.56 C508.06,905.37 508.56,904.75 511.86,903.07 C514.06,901.95 516.15,900.57 516.49,900.01 C517.56,898.28 520.00,898.90 520.00,900.91 C520.00,903.19 514.60,908.00 512.05,908.00 C511.06,908.00 509.71,907.35 509.05,906.56 ZM 555.00 846.22 C555.00,845.71 555.89,841.07 556.98,835.90 C558.08,830.73 558.98,824.09 558.98,821.13 C559.00,815.06 558.11,815.29 569.46,818.38 C572.74,819.27 576.79,820.03 578.46,820.07 C585.79,820.24 585.73,821.18 577.87,828.12 C566.70,837.98 555.00,847.24 555.00,846.22 ZM 402.33 827.90 C397.05,826.37 386.77,818.81 382.76,813.50 C378.03,807.24 374.96,799.27 374.27,791.50 C373.64,784.48 372.73,783.00 369.03,783.00 C365.68,783.00 363.00,785.79 363.00,789.26 C363.00,792.86 359.61,793.84 356.13,791.26 C354.34,789.94 353.04,787.55 352.07,783.76 C350.66,778.30 350.70,778.06 353.80,770.19 C355.65,765.51 357.33,758.93 357.85,754.34 C359.25,741.98 365.58,730.00 370.72,730.00 C371.43,730.00 372.00,730.83 372.00,731.85 C372.00,734.09 375.03,737.00 377.36,737.00 C378.30,737.00 382.45,734.69 386.59,731.88 C390.72,729.06 399.96,724.13 407.11,720.91 C414.27,717.70 421.78,713.77 423.81,712.17 C431.04,706.49 433.60,705.70 442.95,706.24 C447.65,706.52 453.20,707.45 455.27,708.33 C457.34,709.20 462.54,713.26 466.84,717.34 C477.23,727.25 480.55,728.87 490.04,728.66 C496.60,728.52 498.08,728.84 502.34,731.35 C515.25,738.94 513.12,757.45 498.65,763.50 L 494.82 765.10 L 489.95 760.55 C487.28,758.05 484.14,756.00 482.98,756.00 C476.18,756.00 474.80,762.04 480.55,766.65 C483.63,769.13 484.17,770.22 484.66,775.01 C485.35,781.71 483.75,786.06 478.40,791.97 C472.86,798.12 467.09,801.71 459.41,803.81 C455.67,804.84 452.29,806.31 451.91,807.09 C451.52,807.86 450.40,810.45 449.41,812.83 C446.93,818.85 441.00,823.68 434.62,824.89 C412.37,829.11 407.94,829.53 402.33,827.90 ZM 678.72 752.39 C678.38,752.05 675.26,750.78 671.78,749.56 C664.09,746.87 657.33,743.01 653.81,739.28 C650.86,736.17 646.00,724.94 646.00,721.26 C646.00,713.14 655.59,702.00 662.57,702.00 C664.88,702.00 666.44,701.26 667.82,699.50 C668.90,698.12 670.06,697.00 670.40,697.00 C670.74,697.00 671.71,698.74 672.56,700.86 C674.46,705.60 677.81,707.70 680.86,706.07 C683.77,704.52 684.48,700.83 682.58,697.16 C680.51,693.16 680.63,683.77 682.81,678.00 C685.34,671.33 688.64,670.05 704.07,669.80 C714.73,669.63 717.14,669.89 721.00,671.64 C726.24,674.01 732.68,680.73 733.55,684.72 C733.89,686.25 734.86,689.87 735.72,692.77 C739.68,706.11 732.91,727.38 723.09,732.45 C721.59,733.23 716.60,734.82 712.02,736.00 C702.24,738.49 697.45,740.76 694.00,744.54 C689.00,750.02 680.64,754.31 678.72,752.39 ZM 696.36 638.95 C696.71,637.19 697.00,635.13 697.00,634.38 C697.00,632.41 704.43,632.57 706.43,634.57 C708.48,636.62 708.42,636.88 705.75,637.94 C704.51,638.43 701.75,639.57 699.61,640.48 L 695.72 642.14 L 696.36 638.95 ZM 493.00 188.82 C488.73,187.60 488.81,187.67 489.59,185.61 C490.04,184.44 490.87,184.14 492.34,184.61 C493.50,184.97 497.82,185.55 501.96,185.89 C508.03,186.38 509.54,186.84 509.81,188.25 C510.11,189.79 509.31,189.99 503.32,189.91 C499.57,189.86 494.92,189.37 493.00,188.82 ZM 467.97 181.69 C460.89,178.60 451.76,173.05 450.56,171.10 C450.27,170.62 450.66,169.70 451.43,169.05 C452.56,168.12 454.24,168.80 459.67,172.40 C463.43,174.88 469.03,177.88 472.13,179.05 C476.72,180.79 477.67,181.54 477.27,183.09 C476.99,184.14 476.48,184.99 476.13,184.99 C475.79,184.98 472.11,183.50 467.97,181.69 ZM 340.25 193.29 C339.01,193.06 338.00,192.45 338.00,191.96 C338.00,190.97 343.59,191.77 346.00,193.11 C347.10,193.72 346.84,193.91 345.00,193.83 C343.62,193.78 341.49,193.53 340.25,193.29 ZM 576.50 568.16 C566.68,562.17 558.81,544.73 555.92,522.52 C554.18,509.17 555.19,484.78 557.97,473.00 C560.47,462.44 566.19,449.24 570.46,444.21 C573.36,440.78 579.71,437.00 582.56,437.00 C586.11,437.00 591.35,440.55 595.06,445.47 C612.23,468.21 614.98,521.37 600.59,552.52 C593.74,567.35 584.74,573.19 576.50,568.16 ZM 585.42 554.12 C591.67,550.79 597.53,543.41 599.62,536.25 C602.54,526.18 600.12,517.04 590.12,500.46 C586.54,494.53 586.00,492.86 586.00,487.78 C586.00,480.78 587.94,475.72 592.42,471.00 C596.55,466.65 597.47,463.07 595.60,458.59 C593.82,454.33 591.43,453.00 585.52,453.00 C581.44,453.00 580.37,453.51 576.11,457.50 C564.33,468.51 560.59,489.68 567.73,504.89 C568.66,506.88 571.58,512.06 574.21,516.42 C581.04,527.71 580.50,532.66 571.95,537.02 C563.15,541.51 563.37,552.69 572.33,556.52 C576.10,558.13 578.83,557.63 585.42,554.12 ZM 489.46 577.14 C483.53,573.52 477.91,564.87 473.88,553.15 C465.66,529.26 465.59,490.56 473.72,466.05 C482.04,440.94 496.48,432.84 507.15,447.29 C525.52,472.17 528.13,530.04 512.36,562.50 C505.32,576.99 497.46,582.02 489.46,577.14 ZM 497.58 559.07 C503.65,555.58 508.57,550.22 511.26,544.15 C512.86,540.52 513.15,538.10 512.82,531.10 C512.45,523.39 512.00,521.77 508.54,515.50 C497.07,494.69 496.62,493.16 499.51,484.98 C500.34,482.63 502.81,478.76 505.01,476.38 C508.31,472.80 509.00,471.33 509.00,467.96 C509.00,462.83 507.74,460.43 504.02,458.51 C495.79,454.25 487.22,459.89 480.68,473.88 C478.36,478.82 477.54,482.20 477.19,488.20 C476.53,499.73 478.31,506.45 485.09,517.91 C488.28,523.31 491.19,528.92 491.56,530.38 C492.55,534.33 490.38,538.42 485.98,540.89 C476.68,546.12 475.45,553.50 482.84,559.75 C486.52,562.85 491.37,562.63 497.58,559.07 Z" fill="rgb(251,251,250)"/>
</g>
</svg>